<?xml version="1.0" encoding="UTF-8"?>
<svg xmlns="http://www.w3.org/2000/svg" xmlns:xlink="http://www.w3.org/1999/xlink" width="309px" height="305px" viewBox="0 0 309 305" version="1.1">
<defs>
<filter id="alpha" filterUnits="objectBoundingBox" x="0%" y="0%" width="100%" height="100%">
  <feColorMatrix type="matrix" in="SourceGraphic" values="0 0 0 0 1 0 0 0 0 1 0 0 0 0 1 0 0 0 1 0"/>
</filter>
<mask id="mask0">
  <g filter="url(#alpha)">
<rect x="0" y="0" width="309" height="305" style="fill:rgb(0%,0%,0%);fill-opacity:0.988235;stroke:none;"/>
  </g>
</mask>
<clipPath id="clip1">
  <rect x="0" y="0" width="309" height="305"/>
</clipPath>
<g id="surface5" clip-path="url(#clip1)">
<path style=" stroke:none;fill-rule:evenodd;fill:rgb(41.176471%,61.960784%,95.294118%);fill-opacity:1;" d="M 154.113281 0.855469 C 154.183594 3.28125 154.183594 5.726562 154.113281 8.195312 C 153.789062 8.121094 153.480469 8.203125 153.1875 8.4375 C 153.207031 8.585938 153.257812 8.667969 153.339844 8.683594 C 153.632812 11.121094 153.890625 13.566406 154.113281 16.019531 C 153.683594 32.363281 153.375 48.75 153.1875 65.183594 C 151.78125 63.414062 150.238281 61.984375 148.550781 60.902344 C 149.574219 60.605469 150.601562 60.484375 151.640625 60.535156 C 151.359375 49.019531 150.871094 37.523438 150.175781 26.046875 C 149.847656 20.546875 149.359375 15.082031 148.707031 9.660156 C 147.320312 9.996094 145.980469 10.609375 144.6875 11.496094 C 143.324219 12.453125 141.984375 13.472656 140.671875 14.554688 C 140.875 14.214844 141 13.808594 141.058594 13.328125 C 141.105469 9.738281 141.179688 6.152344 141.289062 2.566406 C 141.089844 2.625 140.9375 2.542969 140.828125 2.324219 C 145.25 1.421875 149.679688 0.933594 154.113281 0.855469 Z M 154.113281 0.855469 "/>
</g>
<mask id="mask1">
  <g filter="url(#alpha)">
<rect x="0" y="0" width="309" height="305" style="fill:rgb(0%,0%,0%);fill-opacity:0.992157;stroke:none;"/>
  </g>
</mask>
<clipPath id="clip2">
  <rect x="0" y="0" width="309" height="305"/>
</clipPath>
<g id="surface8" clip-path="url(#clip2)">
<path style=" stroke:none;fill-rule:evenodd;fill:rgb(41.176471%,59.607843%,94.901961%);fill-opacity:1;" d="M 154.113281 0.855469 C 159.351562 0.859375 164.550781 1.511719 169.71875 2.8125 C 169.613281 3 169.484375 3.164062 169.332031 3.300781 C 169.316406 7.484375 169.183594 11.640625 168.945312 15.777344 C 165.050781 11.75 160.777344 9.34375 156.121094 8.558594 C 155.167969 8.359375 154.242188 8.402344 153.339844 8.683594 C 153.257812 8.667969 153.207031 8.585938 153.1875 8.4375 C 153.480469 8.203125 153.789062 8.121094 154.113281 8.195312 C 154.183594 5.726562 154.183594 3.28125 154.113281 0.855469 Z M 154.113281 0.855469 "/>
</g>
<mask id="mask2">
  <g filter="url(#alpha)">
<rect x="0" y="0" width="309" height="305" style="fill:rgb(0%,0%,0%);fill-opacity:0.992157;stroke:none;"/>
  </g>
</mask>
<clipPath id="clip3">
  <rect x="0" y="0" width="309" height="305"/>
</clipPath>
<g id="surface11" clip-path="url(#clip3)">
<path style=" stroke:none;fill-rule:evenodd;fill:rgb(41.176471%,64.705882%,95.294118%);fill-opacity:1;" d="M 140.828125 2.324219 C 140.9375 2.542969 141.089844 2.625 141.289062 2.566406 C 141.179688 6.152344 141.105469 9.738281 141.058594 13.328125 C 141 13.808594 140.875 14.214844 140.671875 14.554688 C 135.65625 19.800781 131.332031 26.242188 127.695312 33.875 C 127.847656 30.292969 127.875 26.703125 127.773438 23.113281 C 127.640625 23.480469 127.511719 23.5625 127.386719 23.359375 C 129.636719 19.101562 132.160156 15.308594 134.957031 11.984375 C 132.65625 12.558594 130.390625 13.414062 128.15625 14.554688 C 128.144531 11.980469 128.144531 9.371094 128.15625 6.726562 C 132.316406 4.792969 136.539062 3.328125 140.828125 2.324219 Z M 140.828125 2.324219 "/>
</g>
<mask id="mask3">
  <g filter="url(#alpha)">
<rect x="0" y="0" width="309" height="305" style="fill:rgb(0%,0%,0%);fill-opacity:0.996078;stroke:none;"/>
  </g>
</mask>
<clipPath id="clip4">
  <rect x="0" y="0" width="309" height="305"/>
</clipPath>
<g id="surface14" clip-path="url(#clip4)">
<path style=" stroke:none;fill-rule:evenodd;fill:rgb(40.784314%,57.254902%,94.901961%);fill-opacity:1;" d="M 169.71875 2.8125 C 173.9375 3.832031 178.054688 5.378906 182.078125 7.460938 C 182.25 10.019531 182.199219 12.546875 181.921875 15.042969 C 179.71875 14.066406 177.503906 13.128906 175.28125 12.230469 C 174.566406 11.90625 173.84375 11.742188 173.117188 11.738281 C 176.429688 15.554688 179.363281 19.996094 181.921875 25.070312 C 181.902344 27.558594 181.851562 30.042969 181.769531 32.53125 C 181.769531 33.644531 181.664062 34.664062 181.460938 35.585938 C 177.953125 27.917969 173.78125 21.3125 168.945312 15.777344 C 169.183594 11.640625 169.316406 7.484375 169.332031 3.300781 C 169.484375 3.164062 169.613281 3 169.71875 2.8125 Z M 169.71875 2.8125 "/>
</g>
<mask id="mask4">
  <g filter="url(#alpha)">
<rect x="0" y="0" width="309" height="305" style="fill:rgb(0%,0%,0%);fill-opacity:0.992157;stroke:none;"/>
  </g>
</mask>
<clipPath id="clip5">
  <rect x="0" y="0" width="309" height="305"/>
</clipPath>
<g id="surface17" clip-path="url(#clip5)">
<path style=" stroke:none;fill-rule:evenodd;fill:rgb(41.568627%,67.058824%,95.294118%);fill-opacity:1;" d="M 128.15625 6.726562 C 128.144531 9.371094 128.144531 11.980469 128.15625 14.554688 C 123.695312 16.699219 119.367188 19.390625 115.179688 22.625 C 115.078125 19.910156 114.976562 17.21875 114.871094 14.554688 C 119.136719 11.324219 123.566406 8.714844 128.15625 6.726562 Z M 128.15625 6.726562 "/>
</g>
<mask id="mask5">
  <g filter="url(#alpha)">
<rect x="0" y="0" width="309" height="305" style="fill:rgb(0%,0%,0%);fill-opacity:0.992157;stroke:none;"/>
  </g>
</mask>
<clipPath id="clip6">
  <rect x="0" y="0" width="309" height="305"/>
</clipPath>
<g id="surface20" clip-path="url(#clip6)">
<path style=" stroke:none;fill-rule:evenodd;fill:rgb(40.392157%,54.901961%,94.901961%);fill-opacity:1;" d="M 182.078125 7.460938 C 186.566406 9.449219 190.894531 12.058594 195.054688 15.285156 C 195.089844 18.003906 194.988281 20.695312 194.746094 23.359375 C 190.585938 20.105469 186.3125 17.332031 181.921875 15.042969 C 182.199219 12.546875 182.25 10.019531 182.078125 7.460938 Z M 182.078125 7.460938 "/>
</g>
<mask id="mask6">
  <g filter="url(#alpha)">
<rect x="0" y="0" width="309" height="305" style="fill:rgb(0%,0%,0%);fill-opacity:0.996078;stroke:none;"/>
  </g>
</mask>
<clipPath id="clip7">
  <rect x="0" y="0" width="309" height="305"/>
</clipPath>
<g id="surface23" clip-path="url(#clip7)">
<path style=" stroke:none;fill-rule:evenodd;fill:rgb(41.568627%,68.627451%,95.294118%);fill-opacity:1;" d="M 114.871094 14.554688 C 114.976562 17.21875 115.078125 19.910156 115.179688 22.625 C 113.636719 23.839844 112.09375 25.0625 110.542969 26.292969 C 110.652344 23.441406 110.703125 20.589844 110.699219 17.734375 C 112.023438 16.480469 113.414062 15.421875 114.871094 14.554688 Z M 114.871094 14.554688 "/>
</g>
<mask id="mask7">
  <g filter="url(#alpha)">
<rect x="0" y="0" width="309" height="305" style="fill:rgb(0%,0%,0%);fill-opacity:0.988235;stroke:none;"/>
  </g>
</mask>
<clipPath id="clip8">
  <rect x="0" y="0" width="309" height="305"/>
</clipPath>
<g id="surface26" clip-path="url(#clip8)">
<path style=" stroke:none;fill-rule:evenodd;fill:rgb(40.392157%,52.54902%,94.901961%);fill-opacity:1;" d="M 195.054688 15.285156 C 199.710938 18.601562 204.089844 22.597656 208.1875 27.269531 C 207.949219 27.449219 207.820312 27.777344 207.800781 28.25 C 207.726562 30.695312 207.699219 33.140625 207.726562 35.585938 C 203.609375 31.019531 199.28125 26.945312 194.746094 23.359375 C 194.988281 20.695312 195.089844 18.003906 195.054688 15.285156 Z M 195.054688 15.285156 "/>
</g>
<mask id="mask8">
  <g filter="url(#alpha)">
<rect x="0" y="0" width="309" height="305" style="fill:rgb(0%,0%,0%);fill-opacity:0.988235;stroke:none;"/>
  </g>
</mask>
<clipPath id="clip9">
  <rect x="0" y="0" width="309" height="305"/>
</clipPath>
<g id="surface29" clip-path="url(#clip9)">
<path style=" stroke:none;fill-rule:evenodd;fill:rgb(40.784314%,60.784314%,94.901961%);fill-opacity:1;" d="M 154.113281 16.019531 C 155.347656 30.796875 156.171875 45.632812 156.585938 60.535156 C 159.625 60.644531 162.664062 60.847656 165.703125 61.148438 C 163.535156 62.613281 161.886719 64.980469 160.757812 68.238281 C 159.421875 68.191406 158.082031 68.148438 156.742188 68.117188 C 156.890625 69.25 156.917969 70.390625 156.816406 71.542969 C 155.792969 69.148438 154.585938 67.027344 153.1875 65.183594 C 153.375 48.75 153.683594 32.363281 154.113281 16.019531 Z M 154.113281 16.019531 "/>
</g>
<mask id="mask9">
  <g filter="url(#alpha)">
<rect x="0" y="0" width="309" height="305" style="fill:rgb(0%,0%,0%);fill-opacity:0.992157;stroke:none;"/>
  </g>
</mask>
<clipPath id="clip10">
  <rect x="0" y="0" width="309" height="305"/>
</clipPath>
<g id="surface32" clip-path="url(#clip10)">
<path style=" stroke:none;fill-rule:evenodd;fill:rgb(41.568627%,66.666667%,95.294118%);fill-opacity:1;" d="M 127.695312 33.875 C 126.625 36.507812 125.519531 39.117188 124.371094 41.703125 C 123.347656 44.414062 122.34375 47.144531 121.359375 49.894531 C 119.34375 50.644531 117.386719 51.664062 115.488281 52.953125 C 118.472656 42.128906 122.4375 32.265625 127.386719 23.359375 C 127.511719 23.5625 127.640625 23.480469 127.773438 23.113281 C 127.875 26.703125 127.847656 30.292969 127.695312 33.875 Z M 127.695312 33.875 "/>
</g>
<mask id="mask10">
  <g filter="url(#alpha)">
<rect x="0" y="0" width="309" height="305" style="fill:rgb(0%,0%,0%);fill-opacity:0.992157;stroke:none;"/>
  </g>
</mask>
<clipPath id="clip11">
  <rect x="0" y="0" width="309" height="305"/>
</clipPath>
<g id="surface35" clip-path="url(#clip11)">
<path style=" stroke:none;fill-rule:evenodd;fill:rgb(40.392157%,55.294118%,94.901961%);fill-opacity:1;" d="M 181.921875 25.070312 C 185.703125 32.296875 188.949219 40.121094 191.65625 48.550781 C 190.128906 49.183594 188.582031 49.632812 187.023438 49.894531 C 185.339844 44.933594 183.488281 40.164062 181.460938 35.585938 C 181.664062 34.664062 181.769531 33.644531 181.769531 32.53125 C 181.851562 30.042969 181.902344 27.558594 181.921875 25.070312 Z M 181.921875 25.070312 "/>
</g>
<mask id="mask11">
  <g filter="url(#alpha)">
<rect x="0" y="0" width="309" height="305" style="fill:rgb(0%,0%,0%);fill-opacity:0.984314;stroke:none;"/>
  </g>
</mask>
<clipPath id="clip12">
  <rect x="0" y="0" width="309" height="305"/>
</clipPath>
<g id="surface38" clip-path="url(#clip12)">
<path style=" stroke:none;fill-rule:evenodd;fill:rgb(40.392157%,50.196078%,94.509804%);fill-opacity:1;" d="M 208.1875 27.269531 C 212.539062 31.75 216.609375 36.84375 220.394531 42.558594 C 221.199219 43.789062 221.96875 45.054688 222.710938 46.347656 C 222.558594 49.242188 222.507812 52.175781 222.558594 55.15625 C 221.925781 54.777344 221.308594 54.328125 220.703125 53.808594 C 216.6875 47.097656 212.359375 41.023438 207.726562 35.585938 C 207.699219 33.140625 207.726562 30.695312 207.800781 28.25 C 207.820312 27.777344 207.949219 27.449219 208.1875 27.269531 Z M 208.1875 27.269531 "/>
</g>
<mask id="mask12">
  <g filter="url(#alpha)">
<rect x="0" y="0" width="309" height="305" style="fill:rgb(0%,0%,0%);fill-opacity:0.996078;stroke:none;"/>
  </g>
</mask>
<clipPath id="clip13">
  <rect x="0" y="0" width="309" height="305"/>
</clipPath>
<g id="surface41" clip-path="url(#clip13)">
<path style=" stroke:none;fill-rule:evenodd;fill:rgb(41.568627%,70.980392%,95.294118%);fill-opacity:1;" d="M 99.265625 28.738281 C 99.421875 28.738281 99.574219 28.738281 99.730469 28.738281 C 99.679688 31.675781 99.625 34.609375 99.574219 37.542969 C 98.320312 39.230469 97.035156 40.863281 95.710938 42.4375 C 95.507812 41.59375 95.40625 40.65625 95.402344 39.625 C 95.492188 37.625 95.519531 35.628906 95.480469 33.628906 C 95.324219 33.835938 95.144531 33.917969 94.941406 33.875 C 96.320312 32.046875 97.761719 30.335938 99.265625 28.738281 Z M 99.265625 28.738281 "/>
</g>
<mask id="mask13">
  <g filter="url(#alpha)">
<rect x="0" y="0" width="309" height="305" style="fill:rgb(0%,0%,0%);fill-opacity:0.996078;stroke:none;"/>
  </g>
</mask>
<clipPath id="clip14">
  <rect x="0" y="0" width="309" height="305"/>
</clipPath>
<g id="surface44" clip-path="url(#clip14)">
<path style=" stroke:none;fill-rule:evenodd;fill:rgb(41.960784%,72.54902%,95.686275%);fill-opacity:1;" d="M 95.710938 42.4375 C 91.433594 48.558594 87.414062 55.082031 83.660156 62.003906 C 83.59375 62.019531 83.542969 61.976562 83.507812 61.878906 C 83.746094 61.582031 83.925781 61.214844 84.046875 60.78125 C 84.117188 57.269531 84.167969 53.761719 84.203125 50.261719 C 84.078125 50.585938 83.894531 50.75 83.660156 50.75 C 87.082031 44.519531 90.84375 38.894531 94.941406 33.875 C 95.144531 33.917969 95.324219 33.835938 95.480469 33.628906 C 95.519531 35.628906 95.492188 37.625 95.402344 39.625 C 95.40625 40.65625 95.507812 41.59375 95.710938 42.4375 Z M 95.710938 42.4375 "/>
</g>
<mask id="mask14">
  <g filter="url(#alpha)">
<rect x="0" y="0" width="309" height="305" style="fill:rgb(0%,0%,0%);fill-opacity:0.992157;stroke:none;"/>
  </g>
</mask>
<clipPath id="clip15">
  <rect x="0" y="0" width="309" height="305"/>
</clipPath>
<g id="surface47" clip-path="url(#clip15)">
<path style=" stroke:none;fill-rule:evenodd;fill:rgb(40%,48.235294%,94.509804%);fill-opacity:1;" d="M 222.710938 46.347656 C 226.046875 51.542969 229.035156 57.167969 231.671875 63.226562 C 228.804688 60.097656 225.765625 57.40625 222.558594 55.15625 C 222.507812 52.175781 222.558594 49.242188 222.710938 46.347656 Z M 222.710938 46.347656 "/>
</g>
<mask id="mask15">
  <g filter="url(#alpha)">
<rect x="0" y="0" width="309" height="305" style="fill:rgb(0%,0%,0%);fill-opacity:0.996078;stroke:none;"/>
  </g>
</mask>
<clipPath id="clip16">
  <rect x="0" y="0" width="309" height="305"/>
</clipPath>
<g id="surface50" clip-path="url(#clip16)">
<path style=" stroke:none;fill-rule:evenodd;fill:rgb(41.960784%,74.509804%,95.686275%);fill-opacity:1;" d="M 83.660156 62.003906 C 79.515625 70.394531 75.910156 79.363281 72.847656 88.90625 C 72.898438 83.839844 72.898438 78.785156 72.847656 73.742188 C 75.917969 65.457031 79.523438 57.792969 83.660156 50.75 C 83.894531 50.75 84.078125 50.585938 84.203125 50.261719 C 84.167969 53.761719 84.117188 57.269531 84.046875 60.78125 C 83.925781 61.214844 83.746094 61.582031 83.507812 61.878906 C 83.542969 61.976562 83.59375 62.019531 83.660156 62.003906 Z M 83.660156 62.003906 "/>
</g>
<mask id="mask16">
  <g filter="url(#alpha)">
<rect x="0" y="0" width="309" height="305" style="fill:rgb(0%,0%,0%);fill-opacity:0.984314;stroke:none;"/>
  </g>
</mask>
<clipPath id="clip17">
  <rect x="0" y="0" width="309" height="305"/>
</clipPath>
<g id="surface53" clip-path="url(#clip17)">
<path style=" stroke:none;fill-rule:evenodd;fill:rgb(93.72549%,9.803922%,14.117647%);fill-opacity:1;" d="M 129.703125 63.226562 C 132.109375 63.207031 134.476562 63.652344 136.808594 64.570312 C 137.570312 64.929688 138.292969 65.417969 138.972656 66.039062 C 133.398438 65.9375 128.246094 68.21875 123.523438 72.886719 C 118.503906 78.136719 114 84.371094 110.003906 91.597656 C 97.09375 115.847656 89.007812 143.730469 85.746094 175.246094 C 84.980469 184.882812 85.03125 194.5 85.902344 204.109375 C 86.566406 211.109375 88.113281 217.546875 90.535156 223.429688 C 93.808594 230.503906 98.238281 234.011719 103.824219 233.949219 C 109.398438 233.695312 114.421875 230.964844 118.886719 225.753906 C 124.988281 218.140625 129.90625 208.96875 133.640625 198.238281 C 144.546875 167.261719 149.335938 134.078125 148.011719 98.691406 C 147.714844 93.378906 146.835938 88.324219 145.382812 83.527344 C 144.214844 80.546875 142.589844 79.6875 140.519531 80.957031 C 139.132812 82.007812 137.921875 83.433594 136.886719 85.238281 C 133.125 92.433594 130.035156 100.34375 127.617188 108.964844 C 125.898438 114.878906 124.535156 120.992188 123.523438 127.308594 C 120.105469 126.816406 117.863281 123.964844 116.800781 118.746094 C 116.542969 114.925781 116.902344 111.257812 117.882812 107.742188 C 121.730469 95.210938 127.367188 85.222656 134.800781 77.777344 C 142.636719 70.695312 148.121094 73.835938 151.253906 87.195312 C 152.695312 93.9375 153.519531 100.871094 153.726562 107.984375 C 154.945312 136.109375 151.699219 162.851562 143.992188 188.210938 C 138.824219 204.375 131.636719 217.867188 122.441406 228.6875 C 116.488281 235.558594 109.84375 239.800781 102.511719 241.40625 C 91.464844 242.878906 83.199219 236.070312 77.714844 220.984375 C 74.617188 211.820312 72.96875 202.039062 72.769531 191.632812 C 72.421875 176.175781 73.917969 161.175781 77.25 146.628906 C 82.804688 121.894531 91.585938 100.574219 103.59375 82.671875 C 108.089844 76.371094 113.085938 71.234375 118.578125 67.261719 C 122.167969 64.929688 125.875 63.582031 129.703125 63.226562 Z M 129.703125 63.226562 "/>
</g>
<mask id="mask17">
  <g filter="url(#alpha)">
<rect x="0" y="0" width="309" height="305" style="fill:rgb(0%,0%,0%);fill-opacity:0.980392;stroke:none;"/>
  </g>
</mask>
<clipPath id="clip18">
  <rect x="0" y="0" width="309" height="305"/>
</clipPath>
<g id="surface56" clip-path="url(#clip18)">
<path style=" stroke:none;fill-rule:evenodd;fill:rgb(93.72549%,9.803922%,14.117647%);fill-opacity:1;" d="M 196.136719 63.226562 C 205.222656 62.226562 213.820312 64.957031 221.9375 71.417969 C 227.378906 76.039062 231.527344 82.683594 234.375 91.351562 C 238.390625 110.175781 235.53125 125.789062 225.800781 138.191406 C 220.28125 144.234375 214.257812 148.636719 207.726562 151.398438 C 199.144531 155.109375 190.417969 157.027344 181.539062 157.148438 C 176.496094 185.171875 171.5 213.21875 166.550781 241.285156 C 162.816406 241.679688 159.777344 239.558594 157.433594 234.925781 C 156.621094 232.066406 156.519531 229.132812 157.125 226.121094 C 163.234375 195.5625 169.621094 165.152344 176.285156 134.890625 C 181.292969 112.78125 186.828125 91.011719 192.894531 69.585938 C 188.960938 70.476562 185.203125 72.394531 181.613281 75.332031 C 179.476562 77.0625 177.367188 78.859375 175.28125 80.714844 C 174.753906 81.089844 174.210938 81.375 173.65625 81.570312 C 171.617188 80.617188 170.148438 78.621094 169.253906 75.578125 C 177.777344 69.054688 186.738281 64.9375 196.136719 63.226562 Z M 201.546875 67.871094 C 207.558594 67.929688 213.121094 70.414062 218.230469 75.332031 C 223.144531 80.65625 225.902344 88.035156 226.496094 97.46875 C 227.285156 109.367188 225.226562 119.800781 220.316406 128.773438 C 215.492188 136.859375 209.746094 142.769531 203.089844 146.507812 C 196.335938 150.300781 189.382812 152.542969 182.234375 153.234375 C 186.394531 129.589844 191.3125 106.355469 196.988281 83.527344 C 198.382812 78.214844 199.902344 72.996094 201.546875 67.871094 Z M 201.546875 67.871094 "/>
</g>
<mask id="mask18">
  <g filter="url(#alpha)">
<rect x="0" y="0" width="309" height="305" style="fill:rgb(0%,0%,0%);fill-opacity:0.0509804;stroke:none;"/>
  </g>
</mask>
<clipPath id="clip19">
  <rect x="0" y="0" width="309" height="305"/>
</clipPath>
<g id="surface59" clip-path="url(#clip19)">
<path style=" stroke:none;fill-rule:evenodd;fill:rgb(40%,51.372549%,92.156863%);fill-opacity:1;" d="M 231.671875 63.226562 C 231.777344 63.226562 231.828125 63.308594 231.828125 63.46875 C 231.777344 63.390625 231.722656 63.308594 231.671875 63.226562 Z M 231.671875 63.226562 "/>
</g>
<mask id="mask19">
  <g filter="url(#alpha)">
<rect x="0" y="0" width="309" height="305" style="fill:rgb(0%,0%,0%);fill-opacity:0.00784314;stroke:none;"/>
  </g>
</mask>
<clipPath id="clip20">
  <rect x="0" y="0" width="309" height="305"/>
</clipPath>
<g id="surface62" clip-path="url(#clip20)">
<path style=" stroke:none;fill-rule:evenodd;fill:rgb(40.392157%,57.647059%,100%);fill-opacity:1;" d="M 231.828125 63.46875 C 232.03125 63.632812 232.03125 63.632812 231.828125 63.46875 Z M 231.828125 63.46875 "/>
</g>
<mask id="mask20">
  <g filter="url(#alpha)">
<rect x="0" y="0" width="309" height="305" style="fill:rgb(0%,0%,0%);fill-opacity:0.992157;stroke:none;"/>
  </g>
</mask>
<clipPath id="clip21">
  <rect x="0" y="0" width="309" height="305"/>
</clipPath>
<g id="surface65" clip-path="url(#clip21)">
<path style=" stroke:none;fill-rule:evenodd;fill:rgb(41.960784%,76.862745%,95.686275%);fill-opacity:1;" d="M 72.847656 73.742188 C 72.898438 78.785156 72.898438 83.839844 72.847656 88.90625 C 71.0625 94.878906 69.542969 100.996094 68.289062 107.25 C 69.53125 104.917969 70.894531 102.796875 72.382812 100.890625 C 72.441406 104.046875 72.492188 107.226562 72.539062 110.429688 C 69.335938 115.792969 66.835938 121.910156 65.042969 128.773438 C 64.609375 130.53125 64.429688 132.328125 64.503906 134.15625 C 66.574219 132.386719 68.734375 131 70.992188 129.996094 C 70.144531 133.496094 69.296875 137 68.445312 140.515625 C 66.730469 141.546875 65.183594 143.011719 63.808594 144.917969 C 63.503906 150.054688 63.503906 155.191406 63.808594 160.328125 C 64.1875 161.085938 64.417969 161.941406 64.503906 162.894531 C 63.105469 174.761719 62.742188 186.703125 63.421875 198.726562 C 62.65625 195.402344 61.757812 192.144531 60.71875 188.945312 C 59.308594 183.453125 58.613281 177.746094 58.632812 171.824219 C 58.941406 171.824219 59.25 171.824219 59.558594 171.824219 C 59.328125 167.285156 59.019531 162.757812 58.632812 158.246094 C 58.664062 157.746094 58.765625 157.296875 58.941406 156.902344 C 58.746094 153.769531 58.746094 150.632812 58.941406 147.484375 C 58.542969 146.019531 58.542969 144.550781 58.941406 143.082031 C 58.757812 142.347656 58.65625 141.570312 58.632812 140.761719 C 58.6875 138.871094 58.816406 136.996094 59.019531 135.132812 C 60.035156 127.105469 61.167969 119.117188 62.417969 111.164062 C 64.808594 97.890625 68.285156 85.414062 72.847656 73.742188 Z M 72.847656 73.742188 "/>
</g>
<mask id="mask21">
  <g filter="url(#alpha)">
<rect x="0" y="0" width="309" height="305" style="fill:rgb(0%,0%,0%);fill-opacity:0.0156863;stroke:none;"/>
  </g>
</mask>
<clipPath id="clip22">
  <rect x="0" y="0" width="309" height="305"/>
</clipPath>
<g id="surface68" clip-path="url(#clip22)">
<path style=" stroke:none;fill-rule:evenodd;fill:rgb(41.960784%,60.392157%,100%);fill-opacity:1;" d="M 90.304688 82.058594 C 90.511719 82.222656 90.511719 82.222656 90.304688 82.058594 Z M 90.304688 82.058594 "/>
</g>
<mask id="mask22">
  <g filter="url(#alpha)">
<rect x="0" y="0" width="309" height="305" style="fill:rgb(0%,0%,0%);fill-opacity:0.984314;stroke:none;"/>
  </g>
</mask>
<clipPath id="clip23">
  <rect x="0" y="0" width="309" height="305"/>
</clipPath>
<g id="surface71" clip-path="url(#clip23)">
<path style=" stroke:none;fill-rule:evenodd;fill:rgb(41.960784%,72.54902%,95.686275%);fill-opacity:1;" d="M 90.304688 82.304688 C 87.925781 86.722656 85.605469 91.207031 83.351562 95.753906 C 83.5 93.242188 83.550781 90.714844 83.507812 88.171875 C 85.628906 85.839844 87.894531 83.882812 90.304688 82.304688 Z M 90.304688 82.304688 "/>
</g>
<mask id="mask23">
  <g filter="url(#alpha)">
<rect x="0" y="0" width="309" height="305" style="fill:rgb(0%,0%,0%);fill-opacity:0.996078;stroke:none;"/>
  </g>
</mask>
<clipPath id="clip24">
  <rect x="0" y="0" width="309" height="305"/>
</clipPath>
<g id="surface74" clip-path="url(#clip24)">
<path style=" stroke:none;fill-rule:evenodd;fill:rgb(41.960784%,74.509804%,95.686275%);fill-opacity:1;" d="M 83.507812 88.171875 C 83.550781 90.714844 83.5 93.242188 83.351562 95.753906 C 83.269531 96.21875 83.113281 96.625 82.890625 96.980469 C 79.179688 100.9375 75.726562 105.421875 72.539062 110.429688 C 72.492188 107.226562 72.441406 104.046875 72.382812 100.890625 C 75.789062 95.992188 79.496094 91.75 83.507812 88.171875 Z M 83.507812 88.171875 "/>
</g>
<mask id="mask24">
  <g filter="url(#alpha)">
<rect x="0" y="0" width="309" height="305" style="fill:rgb(0%,0%,0%);fill-opacity:0.988235;stroke:none;"/>
  </g>
</mask>
<clipPath id="clip25">
  <rect x="0" y="0" width="309" height="305"/>
</clipPath>
<g id="surface77" clip-path="url(#clip25)">
<path style=" stroke:none;fill-rule:evenodd;fill:rgb(40.392157%,52.156863%,94.901961%);fill-opacity:1;" d="M 206.179688 121.191406 C 206.21875 123.324219 206.167969 125.441406 206.027344 127.550781 C 204.359375 129.117188 202.605469 130.421875 200.773438 131.464844 C 200.765625 130.5625 200.710938 129.664062 200.617188 128.773438 C 199.421875 128.664062 198.238281 128.417969 197.066406 128.042969 C 197.671875 125.472656 198.191406 122.863281 198.609375 120.214844 C 199.074219 120.214844 199.535156 120.214844 200 120.214844 C 199.972656 118.734375 199.871094 117.265625 199.691406 115.8125 C 200.660156 110.949219 201.714844 106.140625 202.859375 101.382812 C 203.726562 107.679688 204.398438 114.039062 204.867188 120.460938 C 205.257812 120.871094 205.695312 121.113281 206.179688 121.191406 Z M 206.179688 121.191406 "/>
</g>
<mask id="mask25">
  <g filter="url(#alpha)">
<rect x="0" y="0" width="309" height="305" style="fill:rgb(0%,0%,0%);fill-opacity:0.988235;stroke:none;"/>
  </g>
</mask>
<clipPath id="clip26">
  <rect x="0" y="0" width="309" height="305"/>
</clipPath>
<g id="surface80" clip-path="url(#clip26)">
<path style=" stroke:none;fill-rule:evenodd;fill:rgb(40%,45.098039%,94.509804%);fill-opacity:1;" d="M 247.742188 118.011719 C 247.5 117.722656 247.371094 117.316406 247.355469 116.789062 C 246.847656 143.042969 246.433594 169.292969 246.117188 195.546875 C 246.207031 195.003906 246.335938 194.515625 246.503906 194.078125 C 243.503906 210.839844 238.816406 226.25 232.445312 240.308594 C 232.386719 235.847656 232.335938 231.363281 232.289062 226.855469 C 233.851562 222.65625 235.292969 218.332031 236.617188 213.890625 C 236.589844 213.808594 236.566406 213.726562 236.539062 213.648438 C 235.285156 215.429688 233.972656 217.058594 232.601562 218.539062 C 232.75 215.585938 232.75 212.652344 232.601562 209.734375 C 236.207031 204.734375 239.273438 199.027344 241.792969 192.613281 C 243.144531 185.546875 244.046875 178.375 244.496094 171.089844 C 241.113281 174.785156 237.457031 177.640625 233.527344 179.648438 C 233.414062 179.679688 233.308594 179.640625 233.21875 179.527344 C 233.371094 176.898438 233.421875 174.246094 233.371094 171.578125 C 236.585938 169.96875 239.574219 167.644531 242.332031 164.605469 C 243.613281 163.15625 244.460938 161.238281 244.882812 158.859375 C 244.960938 158.292969 244.984375 157.722656 244.960938 157.148438 C 245.113281 157.148438 245.269531 157.148438 245.421875 157.148438 C 245.449219 153.558594 245.421875 149.972656 245.347656 146.386719 C 244.855469 144.632812 244.058594 143.367188 242.953125 142.59375 C 241.480469 141.4375 239.984375 140.378906 238.472656 139.414062 C 239.660156 137.160156 240.714844 134.753906 241.636719 132.199219 C 242.660156 132.886719 243.640625 133.703125 244.574219 134.644531 C 244.296875 132.105469 243.859375 129.621094 243.261719 127.183594 C 244.847656 120.699219 245.699219 113.972656 245.808594 107.007812 C 246.5625 110.628906 247.207031 114.300781 247.742188 118.011719 Z M 247.742188 118.011719 "/>
</g>
<mask id="mask26">
  <g filter="url(#alpha)">
<rect x="0" y="0" width="309" height="305" style="fill:rgb(0%,0%,0%);fill-opacity:0.980392;stroke:none;"/>
  </g>
</mask>
<clipPath id="clip27">
  <rect x="0" y="0" width="309" height="305"/>
</clipPath>
<g id="surface83" clip-path="url(#clip27)">
<path style=" stroke:none;fill-rule:evenodd;fill:rgb(41.176471%,63.921569%,95.294118%);fill-opacity:1;" d="M 135.574219 118.257812 C 136.605469 118.257812 137.632812 118.257812 138.664062 118.257812 C 138.636719 120.792969 138.53125 123.320312 138.355469 125.839844 C 136.808594 126.125 135.265625 126.125 133.71875 125.839844 C 134.277344 123.265625 134.894531 120.738281 135.574219 118.257812 Z M 135.574219 118.257812 "/>
</g>
<mask id="mask27">
  <g filter="url(#alpha)">
<rect x="0" y="0" width="309" height="305" style="fill:rgb(0%,0%,0%);fill-opacity:0.988235;stroke:none;"/>
  </g>
</mask>
<clipPath id="clip28">
  <rect x="0" y="0" width="309" height="305"/>
</clipPath>
<g id="surface86" clip-path="url(#clip28)">
<path style=" stroke:none;fill-rule:evenodd;fill:rgb(40.784314%,58.823529%,94.901961%);fill-opacity:1;" d="M 163.539062 118.011719 C 165.648438 118.128906 167.761719 118.292969 169.871094 118.503906 C 169.320312 120.921875 168.753906 123.324219 168.171875 125.71875 C 166.574219 125.890625 164.976562 125.847656 163.382812 125.59375 C 163.527344 123.078125 163.578125 120.550781 163.539062 118.011719 Z M 163.539062 118.011719 "/>
</g>
<mask id="mask28">
  <g filter="url(#alpha)">
<rect x="0" y="0" width="309" height="305" style="fill:rgb(0%,0%,0%);fill-opacity:0.964706;stroke:none;"/>
  </g>
</mask>
<clipPath id="clip29">
  <rect x="0" y="0" width="309" height="305"/>
</clipPath>
<g id="surface89" clip-path="url(#clip29)">
<path style=" stroke:none;fill-rule:evenodd;fill:rgb(40.392157%,51.372549%,94.901961%);fill-opacity:1;" d="M 206.179688 121.191406 C 207.808594 121.253906 209.402344 121.539062 210.96875 122.050781 C 209.46875 124.222656 207.820312 126.058594 206.027344 127.550781 C 206.167969 125.441406 206.21875 123.324219 206.179688 121.191406 Z M 206.179688 121.191406 "/>
</g>
<mask id="mask29">
  <g filter="url(#alpha)">
<rect x="0" y="0" width="309" height="305" style="fill:rgb(0%,0%,0%);fill-opacity:0.996078;stroke:none;"/>
  </g>
</mask>
<clipPath id="clip30">
  <rect x="0" y="0" width="309" height="305"/>
</clipPath>
<g id="surface92" clip-path="url(#clip30)">
<path style=" stroke:none;fill-rule:evenodd;fill:rgb(41.568627%,69.411765%,95.294118%);fill-opacity:1;" d="M 108.074219 182.585938 C 107.945312 183.351562 107.867188 184.167969 107.839844 185.03125 C 107.6875 193.917969 107.53125 202.804688 107.378906 211.691406 C 107.34375 212.769531 107.265625 213.832031 107.144531 214.871094 C 105.742188 206.699219 104.710938 198.382812 104.054688 189.921875 C 101.570312 189.511719 99.097656 188.941406 96.640625 188.210938 C 96.972656 186.535156 97.128906 184.78125 97.101562 182.949219 C 97.078125 181.96875 96.976562 181.03125 96.792969 180.136719 C 98.933594 180.867188 101.097656 181.4375 103.285156 181.851562 C 102.359375 167.367188 102.125 152.855469 102.589844 138.3125 C 104.023438 133.277344 105.621094 128.382812 107.378906 123.640625 C 107.480469 123.3125 107.582031 123.3125 107.6875 123.640625 C 107.976562 125.332031 108.414062 126.921875 109 128.40625 C 108.625 128.746094 108.210938 128.867188 107.765625 128.773438 C 106.867188 146.722656 106.96875 164.660156 108.074219 182.585938 Z M 108.074219 182.585938 "/>
</g>
<mask id="mask30">
  <g filter="url(#alpha)">
<rect x="0" y="0" width="309" height="305" style="fill:rgb(0%,0%,0%);fill-opacity:0.0313725;stroke:none;"/>
  </g>
</mask>
<clipPath id="clip31">
  <rect x="0" y="0" width="309" height="305"/>
</clipPath>
<g id="surface95" clip-path="url(#clip31)">
<path style=" stroke:none;fill-rule:evenodd;fill:rgb(41.176471%,61.176471%,98.431373%);fill-opacity:1;" d="M 70.992188 129.753906 C 71.199219 129.917969 71.199219 129.917969 70.992188 129.753906 Z M 70.992188 129.753906 "/>
</g>
<mask id="mask31">
  <g filter="url(#alpha)">
<rect x="0" y="0" width="309" height="305" style="fill:rgb(0%,0%,0%);fill-opacity:0.988235;stroke:none;"/>
  </g>
</mask>
<clipPath id="clip32">
  <rect x="0" y="0" width="309" height="305"/>
</clipPath>
<g id="surface98" clip-path="url(#clip32)">
<path style=" stroke:none;fill-rule:evenodd;fill:rgb(40.392157%,52.54902%,94.901961%);fill-opacity:1;" d="M 205.097656 181.605469 C 205.140625 184.222656 205.089844 186.871094 204.945312 189.554688 C 205.136719 189.613281 205.289062 189.734375 205.40625 189.921875 C 204.78125 189.695312 204.417969 190.0625 204.328125 191.023438 C 202.90625 206.902344 200.433594 222.351562 196.910156 237.371094 C 196.988281 237.453125 197.066406 237.535156 197.140625 237.617188 C 199.492188 236.496094 201.835938 235.355469 204.171875 234.191406 C 204.15625 236.589844 204.183594 239.035156 204.25 241.53125 C 204.402344 241.21875 204.527344 241.21875 204.636719 241.53125 C 201.386719 243.339844 198.089844 244.929688 194.746094 246.300781 C 193.597656 250.46875 192.3125 254.503906 190.882812 258.40625 C 190.949219 253.023438 191.050781 247.640625 191.195312 242.261719 C 191.144531 241.609375 191.089844 240.960938 191.039062 240.308594 C 190.808594 240.601562 190.601562 240.601562 190.421875 240.308594 C 190.820312 240.261719 191.15625 240.019531 191.425781 239.574219 C 195.277344 223.953125 197.980469 207.851562 199.535156 191.265625 C 196.917969 191.640625 194.289062 192.007812 191.65625 192.367188 C 191.828125 192.03125 191.933594 191.621094 191.964844 191.144531 C 192.214844 188.882812 192.164062 186.683594 191.8125 184.539062 C 194.601562 184.171875 197.382812 183.683594 200.15625 183.074219 C 200.503906 178.523438 200.761719 173.957031 200.925781 169.375 C 202.578125 168.878906 204.226562 168.429688 205.871094 168.03125 C 205.625 172.546875 205.367188 177.070312 205.097656 181.605469 Z M 205.097656 181.605469 "/>
</g>
<mask id="mask32">
  <g filter="url(#alpha)">
<rect x="0" y="0" width="309" height="305" style="fill:rgb(0%,0%,0%);fill-opacity:0.996078;stroke:none;"/>
  </g>
</mask>
<clipPath id="clip33">
  <rect x="0" y="0" width="309" height="305"/>
</clipPath>
<g id="surface101" clip-path="url(#clip33)">
<path style=" stroke:none;fill-rule:evenodd;fill:rgb(40%,47.45098%,94.509804%);fill-opacity:1;" d="M 233.371094 171.578125 C 233.421875 174.246094 233.371094 176.898438 233.21875 179.527344 C 233.308594 179.640625 233.414062 179.679688 233.527344 179.648438 C 229.25 182.097656 224.875 184.050781 220.394531 185.519531 C 220.289062 182.828125 220.238281 180.136719 220.238281 177.449219 C 224.679688 175.832031 229.058594 173.875 233.371094 171.578125 Z M 233.371094 171.578125 "/>
</g>
<mask id="mask33">
  <g filter="url(#alpha)">
<rect x="0" y="0" width="309" height="305" style="fill:rgb(0%,0%,0%);fill-opacity:0.988235;stroke:none;"/>
  </g>
</mask>
<clipPath id="clip34">
  <rect x="0" y="0" width="309" height="305"/>
</clipPath>
<g id="surface104" clip-path="url(#clip34)">
<path style=" stroke:none;fill-rule:evenodd;fill:rgb(40.392157%,50.196078%,94.509804%);fill-opacity:1;" d="M 220.238281 177.449219 C 220.238281 180.136719 220.289062 182.828125 220.394531 185.519531 C 215.441406 187.328125 210.449219 188.796875 205.40625 189.921875 C 205.289062 189.734375 205.136719 189.613281 204.945312 189.554688 C 205.089844 186.871094 205.140625 184.222656 205.097656 181.605469 C 205.246094 181.765625 205.425781 181.847656 205.640625 181.851562 C 210.542969 180.679688 215.410156 179.210938 220.238281 177.449219 Z M 220.238281 177.449219 "/>
</g>
<mask id="mask34">
  <g filter="url(#alpha)">
<rect x="0" y="0" width="309" height="305" style="fill:rgb(0%,0%,0%);fill-opacity:0.996078;stroke:none;"/>
  </g>
</mask>
<clipPath id="clip35">
  <rect x="0" y="0" width="309" height="305"/>
</clipPath>
<g id="surface107" clip-path="url(#clip35)">
<path style=" stroke:none;fill-rule:evenodd;fill:rgb(41.568627%,70.980392%,95.294118%);fill-opacity:1;" d="M 96.792969 180.136719 C 96.976562 181.03125 97.078125 181.96875 97.101562 182.949219 C 97.128906 184.78125 96.972656 186.535156 96.640625 188.210938 C 96.023438 188.046875 95.402344 187.882812 94.785156 187.71875 C 94.785156 185.011719 94.914062 182.324219 95.171875 179.648438 C 95.691406 179.953125 96.234375 180.117188 96.792969 180.136719 Z M 96.792969 180.136719 "/>
</g>
<mask id="mask35">
  <g filter="url(#alpha)">
<rect x="0" y="0" width="309" height="305" style="fill:rgb(0%,0%,0%);fill-opacity:0.996078;stroke:none;"/>
  </g>
</mask>
<clipPath id="clip36">
  <rect x="0" y="0" width="309" height="305"/>
</clipPath>
<g id="surface110" clip-path="url(#clip36)">
<path style=" stroke:none;fill-rule:evenodd;fill:rgb(41.568627%,68.627451%,95.294118%);fill-opacity:1;" d="M 108.074219 182.585938 C 108.277344 182.910156 108.535156 183.113281 108.84375 183.195312 C 110.078125 183.480469 111.3125 183.683594 112.554688 183.808594 C 112.402344 184.003906 112.273438 184.25 112.167969 184.539062 C 112.183594 186.96875 112.054688 189.332031 111.78125 191.632812 C 110.808594 191.371094 109.832031 191.207031 108.84375 191.144531 C 109.574219 199.007812 110.554688 206.792969 111.78125 214.503906 C 111.738281 214.964844 111.582031 215.292969 111.316406 215.480469 C 110.101562 216.570312 108.8125 217.347656 107.453125 217.804688 C 107.351562 216.828125 107.25 215.847656 107.144531 214.871094 C 107.265625 213.832031 107.34375 212.769531 107.378906 211.691406 C 107.53125 202.804688 107.6875 193.917969 107.839844 185.03125 C 107.867188 184.167969 107.945312 183.351562 108.074219 182.585938 Z M 108.074219 182.585938 "/>
</g>
<mask id="mask36">
  <g filter="url(#alpha)">
<rect x="0" y="0" width="309" height="305" style="fill:rgb(0%,0%,0%);fill-opacity:0.992157;stroke:none;"/>
  </g>
</mask>
<clipPath id="clip37">
  <rect x="0" y="0" width="309" height="305"/>
</clipPath>
<g id="surface113" clip-path="url(#clip37)">
<path style=" stroke:none;fill-rule:evenodd;fill:rgb(41.176471%,67.058824%,95.294118%);fill-opacity:1;" d="M 112.554688 183.808594 C 117.320312 184.773438 122.113281 185.546875 126.921875 186.128906 C 126.125 188.574219 125.25 190.941406 124.296875 193.222656 C 120.113281 192.921875 115.945312 192.390625 111.78125 191.632812 C 112.054688 189.332031 112.183594 186.96875 112.167969 184.539062 C 112.273438 184.25 112.402344 184.003906 112.554688 183.808594 Z M 112.554688 183.808594 "/>
</g>
<mask id="mask37">
  <g filter="url(#alpha)">
<rect x="0" y="0" width="309" height="305" style="fill:rgb(0%,0%,0%);fill-opacity:0.992157;stroke:none;"/>
  </g>
</mask>
<clipPath id="clip38">
  <rect x="0" y="0" width="309" height="305"/>
</clipPath>
<g id="surface116" clip-path="url(#clip38)">
<path style=" stroke:none;fill-rule:evenodd;fill:rgb(40.392157%,54.117647%,94.901961%);fill-opacity:1;" d="M 191.8125 184.539062 C 192.164062 186.683594 192.214844 188.882812 191.964844 191.144531 C 191.933594 191.621094 191.828125 192.03125 191.65625 192.367188 C 189.449219 192.871094 187.238281 193.113281 185.015625 193.101562 C 185.441406 190.59375 185.90625 188.105469 186.402344 185.640625 C 188.203125 185.222656 190.003906 184.855469 191.8125 184.539062 Z M 191.8125 184.539062 "/>
</g>
<mask id="mask38">
  <g filter="url(#alpha)">
<rect x="0" y="0" width="309" height="305" style="fill:rgb(0%,0%,0%);fill-opacity:0.87451;stroke:none;"/>
  </g>
</mask>
<clipPath id="clip39">
  <rect x="0" y="0" width="309" height="305"/>
</clipPath>
<g id="surface119" clip-path="url(#clip39)">
<path style=" stroke:none;fill-rule:evenodd;fill:rgb(41.176471%,61.176471%,94.901961%);fill-opacity:1;" d="M 154.730469 187.476562 C 154.824219 187.535156 154.875 187.65625 154.886719 187.84375 C 154.160156 191.210938 153.464844 194.59375 152.800781 197.992188 C 152.765625 196.921875 152.6875 195.859375 152.570312 194.8125 C 153.375 192.421875 154.097656 189.976562 154.730469 187.476562 Z M 154.730469 187.476562 "/>
</g>
<mask id="mask39">
  <g filter="url(#alpha)">
<rect x="0" y="0" width="309" height="305" style="fill:rgb(0%,0%,0%);fill-opacity:0.054902;stroke:none;"/>
  </g>
</mask>
<clipPath id="clip40">
  <rect x="0" y="0" width="309" height="305"/>
</clipPath>
<g id="surface122" clip-path="url(#clip40)">
<path style=" stroke:none;fill-rule:evenodd;fill:rgb(41.568627%,63.529412%,96.862745%);fill-opacity:1;" d="M 63.421875 198.726562 C 63.589844 198.910156 63.613281 199.15625 63.5 199.460938 C 63.425781 199.230469 63.398438 198.984375 63.421875 198.726562 Z M 63.421875 198.726562 "/>
</g>
<mask id="mask40">
  <g filter="url(#alpha)">
<rect x="0" y="0" width="309" height="305" style="fill:rgb(0%,0%,0%);fill-opacity:0.996078;stroke:none;"/>
  </g>
</mask>
<clipPath id="clip41">
  <rect x="0" y="0" width="309" height="305"/>
</clipPath>
<g id="surface125" clip-path="url(#clip41)">
<path style=" stroke:none;fill-rule:evenodd;fill:rgb(40%,47.45098%,94.509804%);fill-opacity:1;" d="M 232.601562 209.734375 C 232.75 212.652344 232.75 215.585938 232.601562 218.539062 C 228.691406 223.511719 224.46875 227.75 219.929688 231.257812 C 219.777344 231.257812 219.621094 231.257812 219.46875 231.257812 C 219.394531 228.621094 219.496094 226.011719 219.777344 223.429688 C 224.34375 219.53125 228.617188 214.964844 232.601562 209.734375 Z M 232.601562 209.734375 "/>
</g>
<mask id="mask41">
  <g filter="url(#alpha)">
<rect x="0" y="0" width="309" height="305" style="fill:rgb(0%,0%,0%);fill-opacity:0.988235;stroke:none;"/>
  </g>
</mask>
<clipPath id="clip42">
  <rect x="0" y="0" width="309" height="305"/>
</clipPath>
<g id="surface128" clip-path="url(#clip42)">
<path style=" stroke:none;fill-rule:evenodd;fill:rgb(40.392157%,50.196078%,94.509804%);fill-opacity:1;" d="M 219.777344 223.429688 C 219.496094 226.011719 219.394531 228.621094 219.46875 231.257812 C 219.621094 231.257812 219.777344 231.257812 219.929688 231.257812 C 215.019531 235.34375 209.921875 238.769531 204.636719 241.53125 C 204.527344 241.21875 204.402344 241.21875 204.25 241.53125 C 204.183594 239.035156 204.15625 236.589844 204.171875 234.191406 C 209.53125 231.214844 214.730469 227.628906 219.777344 223.429688 Z M 219.777344 223.429688 "/>
</g>
<mask id="mask42">
  <g filter="url(#alpha)">
<rect x="0" y="0" width="309" height="305" style="fill:rgb(0%,0%,0%);fill-opacity:0.996078;stroke:none;"/>
  </g>
</mask>
<clipPath id="clip43">
  <rect x="0" y="0" width="309" height="305"/>
</clipPath>
<g id="surface131" clip-path="url(#clip43)">
<path style=" stroke:none;fill-rule:evenodd;fill:rgb(40%,47.45098%,94.509804%);fill-opacity:1;" d="M 232.289062 226.855469 C 232.335938 231.363281 232.386719 235.847656 232.445312 240.308594 C 228.527344 249.042969 224.046875 257.03125 219.003906 264.277344 C 218.972656 260.976562 218.949219 257.632812 218.925781 254.25 C 218.824219 254.429688 218.695312 254.515625 218.539062 254.492188 C 223.777344 246.046875 228.359375 236.835938 232.289062 226.855469 Z M 232.289062 226.855469 "/>
</g>
<mask id="mask43">
  <g filter="url(#alpha)">
<rect x="0" y="0" width="309" height="305" style="fill:rgb(0%,0%,0%);fill-opacity:0.996078;stroke:none;"/>
  </g>
</mask>
<clipPath id="clip44">
  <rect x="0" y="0" width="309" height="305"/>
</clipPath>
<g id="surface134" clip-path="url(#clip44)">
<path style=" stroke:none;fill-rule:evenodd;fill:rgb(40.392157%,54.901961%,94.901961%);fill-opacity:1;" d="M 190.421875 240.308594 C 190.601562 240.601562 190.808594 240.601562 191.039062 240.308594 C 191.089844 240.960938 191.144531 241.609375 191.195312 242.261719 C 191.050781 247.640625 190.949219 253.023438 190.882812 258.40625 C 187.460938 269.246094 182.980469 278.867188 177.441406 287.265625 C 177.445312 283.761719 177.5 280.253906 177.597656 276.75 C 182.167969 268.15625 185.976562 258.742188 189.03125 248.5 C 185.398438 249.625 181.738281 250.640625 178.0625 251.558594 C 178.074219 248.996094 178.074219 246.464844 178.0625 243.976562 C 182.203125 242.964844 186.324219 241.742188 190.421875 240.308594 Z M 190.421875 240.308594 "/>
</g>
<mask id="mask44">
  <g filter="url(#alpha)">
<rect x="0" y="0" width="309" height="305" style="fill:rgb(0%,0%,0%);fill-opacity:0.988235;stroke:none;"/>
  </g>
</mask>
<clipPath id="clip45">
  <rect x="0" y="0" width="309" height="305"/>
</clipPath>
<g id="surface137" clip-path="url(#clip45)">
<path style=" stroke:none;fill-rule:evenodd;fill:rgb(41.176471%,64.705882%,95.294118%);fill-opacity:1;" d="M 137.273438 245.199219 C 136.882812 247.753906 136.882812 250.28125 137.273438 252.78125 C 132.714844 251.992188 128.183594 250.933594 123.675781 249.601562 C 123.960938 248.578125 124.113281 247.476562 124.140625 246.300781 C 124.125 245.886719 124.019531 245.601562 123.832031 245.441406 C 124.660156 244.464844 125.535156 243.566406 126.457031 242.753906 C 130.042969 243.773438 133.648438 244.589844 137.273438 245.199219 Z M 137.273438 245.199219 "/>
</g>
<mask id="mask45">
  <g filter="url(#alpha)">
<rect x="0" y="0" width="309" height="305" style="fill:rgb(0%,0%,0%);fill-opacity:0.992157;stroke:none;"/>
  </g>
</mask>
<clipPath id="clip46">
  <rect x="0" y="0" width="309" height="305"/>
</clipPath>
<g id="surface140" clip-path="url(#clip46)">
<path style=" stroke:none;fill-rule:evenodd;fill:rgb(40.392157%,56.078431%,94.901961%);fill-opacity:1;" d="M 178.0625 243.976562 C 178.074219 246.464844 178.074219 248.996094 178.0625 251.558594 C 176.519531 251.882812 174.976562 252.128906 173.425781 252.292969 C 174.640625 250.003906 175.488281 247.390625 175.976562 244.464844 C 176.65625 244.210938 177.351562 244.050781 178.0625 243.976562 Z M 178.0625 243.976562 "/>
</g>
<mask id="mask46">
  <g filter="url(#alpha)">
<rect x="0" y="0" width="309" height="305" style="fill:rgb(0%,0%,0%);fill-opacity:0.988235;stroke:none;"/>
  </g>
</mask>
<clipPath id="clip47">
  <rect x="0" y="0" width="309" height="305"/>
</clipPath>
<g id="surface143" clip-path="url(#clip47)">
<path style=" stroke:none;fill-rule:evenodd;fill:rgb(41.176471%,62.352941%,95.294118%);fill-opacity:1;" d="M 137.273438 245.199219 C 141.28125 245.777344 145.300781 246.1875 149.324219 246.421875 C 149.488281 246.648438 149.695312 246.730469 149.941406 246.664062 C 149.941406 249.03125 149.941406 251.394531 149.941406 253.757812 C 149.742188 253.699219 149.589844 253.785156 149.480469 254.003906 C 145.402344 253.769531 141.335938 253.359375 137.273438 252.78125 C 136.882812 250.28125 136.882812 247.753906 137.273438 245.199219 Z M 137.273438 245.199219 "/>
</g>
<mask id="mask47">
  <g filter="url(#alpha)">
<rect x="0" y="0" width="309" height="305" style="fill:rgb(0%,0%,0%);fill-opacity:0.980392;stroke:none;"/>
  </g>
</mask>
<clipPath id="clip48">
  <rect x="0" y="0" width="309" height="305"/>
</clipPath>
<g id="surface146" clip-path="url(#clip48)">
<path style=" stroke:none;fill-rule:evenodd;fill:rgb(41.176471%,66.27451%,95.294118%);fill-opacity:1;" d="M 123.832031 245.441406 C 124.019531 245.601562 124.125 245.886719 124.140625 246.300781 C 124.113281 247.476562 123.960938 248.578125 123.675781 249.601562 C 122.492188 249.25 121.308594 248.882812 120.125 248.5 C 121.382812 247.515625 122.621094 246.496094 123.832031 245.441406 Z M 123.832031 245.441406 "/>
</g>
<mask id="mask48">
  <g filter="url(#alpha)">
<rect x="0" y="0" width="309" height="305" style="fill:rgb(0%,0%,0%);fill-opacity:0.992157;stroke:none;"/>
  </g>
</mask>
<clipPath id="clip49">
  <rect x="0" y="0" width="309" height="305"/>
</clipPath>
<g id="surface149" clip-path="url(#clip49)">
<path style=" stroke:none;fill-rule:evenodd;fill:rgb(41.176471%,60.392157%,94.901961%);fill-opacity:1;" d="M 149.324219 246.421875 C 149.894531 246.378906 150.460938 246.421875 151.023438 246.542969 C 152.941406 249.65625 155.152344 252.101562 157.667969 253.882812 C 157.207031 254.003906 156.742188 254.042969 156.277344 254.003906 C 155.863281 265.867188 155.167969 277.6875 154.191406 289.46875 C 153.996094 291.703125 153.714844 293.902344 153.339844 296.074219 C 155.964844 296.414062 158.542969 295.96875 161.066406 294.726562 C 162.324219 294.097656 163.558594 293.402344 164.773438 292.648438 C 164.671875 292.835938 164.539062 293 164.386719 293.136719 C 164.296875 296.480469 164.21875 299.820312 164.15625 303.164062 C 159.101562 303.878906 154.054688 304.042969 149.015625 303.65625 C 149.078125 299.207031 149.183594 294.765625 149.324219 290.324219 C 149.300781 290.015625 149.25 289.734375 149.167969 289.46875 C 150.128906 277.6875 150.796875 265.867188 151.179688 254.003906 C 150.613281 254.003906 150.046875 254.003906 149.480469 254.003906 C 149.589844 253.785156 149.742188 253.699219 149.941406 253.757812 C 149.941406 251.394531 149.941406 249.03125 149.941406 246.664062 C 149.695312 246.730469 149.488281 246.648438 149.324219 246.421875 Z M 149.324219 246.421875 "/>
</g>
<mask id="mask49">
  <g filter="url(#alpha)">
<rect x="0" y="0" width="309" height="305" style="fill:rgb(0%,0%,0%);fill-opacity:0.00784314;stroke:none;"/>
  </g>
</mask>
<clipPath id="clip50">
  <rect x="0" y="0" width="309" height="305"/>
</clipPath>
<g id="surface152" clip-path="url(#clip50)">
<path style=" stroke:none;fill-rule:evenodd;fill:rgb(40.392157%,57.647059%,100%);fill-opacity:1;" d="M 79.953125 247.398438 C 79.851562 247.074219 79.851562 247.074219 79.953125 247.398438 Z M 79.953125 247.398438 "/>
</g>
<mask id="mask50">
  <g filter="url(#alpha)">
<rect x="0" y="0" width="309" height="305" style="fill:rgb(0%,0%,0%);fill-opacity:0.992157;stroke:none;"/>
  </g>
</mask>
<clipPath id="clip51">
  <rect x="0" y="0" width="309" height="305"/>
</clipPath>
<g id="surface155" clip-path="url(#clip51)">
<path style=" stroke:none;fill-rule:evenodd;fill:rgb(41.960784%,72.156863%,95.686275%);fill-opacity:1;" d="M 79.953125 247.398438 C 83.226562 250.886719 86.777344 253.453125 90.613281 255.105469 C 91.003906 255.519531 91.363281 255.96875 91.695312 256.449219 C 91.675781 259.632812 91.597656 262.8125 91.464844 265.988281 C 91.355469 265.683594 91.28125 265.683594 91.230469 265.988281 C 87.035156 260.40625 83.277344 254.210938 79.953125 247.398438 Z M 79.953125 247.398438 "/>
</g>
<mask id="mask51">
  <g filter="url(#alpha)">
<rect x="0" y="0" width="309" height="305" style="fill:rgb(0%,0%,0%);fill-opacity:0.992157;stroke:none;"/>
  </g>
</mask>
<clipPath id="clip52">
  <rect x="0" y="0" width="309" height="305"/>
</clipPath>
<g id="surface158" clip-path="url(#clip52)">
<path style=" stroke:none;fill-rule:evenodd;fill:rgb(41.176471%,66.666667%,95.294118%);fill-opacity:1;" d="M 123.675781 261.585938 C 123.761719 262.226562 123.8125 262.878906 123.832031 263.542969 C 123.722656 266.800781 123.644531 270.0625 123.601562 273.324219 C 123.496094 273.140625 123.367188 273.058594 123.214844 273.082031 C 120.257812 266.378906 117.632812 259.324219 115.335938 251.925781 C 116.722656 250.945312 118.113281 250.046875 119.503906 249.234375 C 120.878906 253.386719 122.269531 257.5 123.675781 261.585938 Z M 123.675781 261.585938 "/>
</g>
<mask id="mask52">
  <g filter="url(#alpha)">
<rect x="0" y="0" width="309" height="305" style="fill:rgb(0%,0%,0%);fill-opacity:0.0313725;stroke:none;"/>
  </g>
</mask>
<clipPath id="clip53">
  <rect x="0" y="0" width="309" height="305"/>
</clipPath>
<g id="surface161" clip-path="url(#clip53)">
<path style=" stroke:none;fill-rule:evenodd;fill:rgb(41.176471%,61.176471%,98.431373%);fill-opacity:1;" d="M 173.425781 252.292969 C 173.324219 252.457031 173.324219 252.457031 173.425781 252.292969 Z M 173.425781 252.292969 "/>
</g>
<mask id="mask53">
  <g filter="url(#alpha)">
<rect x="0" y="0" width="309" height="305" style="fill:rgb(0%,0%,0%);fill-opacity:0.988235;stroke:none;"/>
  </g>
</mask>
<clipPath id="clip54">
  <rect x="0" y="0" width="309" height="305"/>
</clipPath>
<g id="surface164" clip-path="url(#clip54)">
<path style=" stroke:none;fill-rule:evenodd;fill:rgb(40.392157%,50.196078%,94.509804%);fill-opacity:1;" d="M 219.003906 264.277344 C 214.25 271.152344 209.097656 277.183594 203.554688 282.375 C 203.5 279.484375 203.5 276.550781 203.554688 273.570312 C 206.429688 270.394531 209.261719 267.089844 212.050781 263.664062 C 214.25 260.664062 216.410156 257.605469 218.539062 254.492188 C 218.695312 254.515625 218.824219 254.429688 218.925781 254.25 C 218.949219 257.632812 218.972656 260.976562 219.003906 264.277344 Z M 219.003906 264.277344 "/>
</g>
<mask id="mask54">
  <g filter="url(#alpha)">
<rect x="0" y="0" width="309" height="305" style="fill:rgb(0%,0%,0%);fill-opacity:0.988235;stroke:none;"/>
  </g>
</mask>
<clipPath id="clip55">
  <rect x="0" y="0" width="309" height="305"/>
</clipPath>
<g id="surface167" clip-path="url(#clip55)">
<path style=" stroke:none;fill-rule:evenodd;fill:rgb(41.176471%,64.705882%,95.294118%);fill-opacity:1;" d="M 123.675781 261.585938 C 127.152344 270.597656 131.429688 278.589844 136.5 285.554688 C 136.304688 290.679688 136.148438 295.816406 136.039062 300.964844 C 131.664062 299.742188 127.390625 297.949219 123.214844 295.582031 C 123.226562 292.953125 123.332031 290.34375 123.523438 287.757812 C 127.25 289.964844 131.058594 291.636719 134.957031 292.769531 C 130.480469 287.03125 126.566406 280.46875 123.214844 273.082031 C 123.367188 273.058594 123.496094 273.140625 123.601562 273.324219 C 123.644531 270.0625 123.722656 266.800781 123.832031 263.542969 C 123.8125 262.878906 123.761719 262.226562 123.675781 261.585938 Z M 123.675781 261.585938 "/>
</g>
<mask id="mask55">
  <g filter="url(#alpha)">
<rect x="0" y="0" width="309" height="305" style="fill:rgb(0%,0%,0%);fill-opacity:0.992157;stroke:none;"/>
  </g>
</mask>
<clipPath id="clip56">
  <rect x="0" y="0" width="309" height="305"/>
</clipPath>
<g id="surface170" clip-path="url(#clip56)">
<path style=" stroke:none;fill-rule:evenodd;fill:rgb(40.392157%,52.54902%,94.901961%);fill-opacity:1;" d="M 203.554688 273.570312 C 203.5 276.550781 203.5 279.484375 203.554688 282.375 C 199.34375 286.519531 194.917969 290.027344 190.265625 292.894531 C 190.332031 290.121094 190.382812 287.351562 190.421875 284.578125 C 194.957031 281.351562 199.335938 277.683594 203.554688 273.570312 Z M 203.554688 273.570312 "/>
</g>
<mask id="mask56">
  <g filter="url(#alpha)">
<rect x="0" y="0" width="309" height="305" style="fill:rgb(0%,0%,0%);fill-opacity:0.996078;stroke:none;"/>
  </g>
</mask>
<clipPath id="clip57">
  <rect x="0" y="0" width="309" height="305"/>
</clipPath>
<g id="surface173" clip-path="url(#clip57)">
<path style=" stroke:none;fill-rule:evenodd;fill:rgb(41.568627%,68.627451%,95.294118%);fill-opacity:1;" d="M 106.21875 274.550781 C 107.753906 275.839844 109.246094 277.226562 110.699219 278.707031 C 110.582031 281.378906 110.425781 284.066406 110.234375 286.777344 C 108.738281 285.59375 107.296875 284.289062 105.910156 282.863281 C 106.214844 280.1875 106.316406 277.414062 106.21875 274.550781 Z M 106.21875 274.550781 "/>
</g>
<mask id="mask57">
  <g filter="url(#alpha)">
<rect x="0" y="0" width="309" height="305" style="fill:rgb(0%,0%,0%);fill-opacity:0.996078;stroke:none;"/>
  </g>
</mask>
<clipPath id="clip58">
  <rect x="0" y="0" width="309" height="305"/>
</clipPath>
<g id="surface176" clip-path="url(#clip58)">
<path style=" stroke:none;fill-rule:evenodd;fill:rgb(40.784314%,57.254902%,94.901961%);fill-opacity:1;" d="M 177.597656 276.75 C 177.5 280.253906 177.445312 283.761719 177.441406 287.265625 C 176.121094 289.296875 174.730469 291.210938 173.273438 293.015625 C 174.417969 292.808594 175.550781 292.441406 176.671875 291.914062 C 176.832031 292.230469 177.011719 292.230469 177.210938 291.914062 C 177.371094 294.554688 177.296875 297.164062 176.980469 299.742188 C 172.746094 301.28125 168.472656 302.417969 164.15625 303.164062 C 164.21875 299.820312 164.296875 296.480469 164.386719 293.136719 C 164.539062 293 164.671875 292.835938 164.773438 292.648438 C 169.699219 288.703125 173.972656 283.40625 177.597656 276.75 Z M 177.597656 276.75 "/>
</g>
<mask id="mask58">
  <g filter="url(#alpha)">
<rect x="0" y="0" width="309" height="305" style="fill:rgb(0%,0%,0%);fill-opacity:0.992157;stroke:none;"/>
  </g>
</mask>
<clipPath id="clip59">
  <rect x="0" y="0" width="309" height="305"/>
</clipPath>
<g id="surface179" clip-path="url(#clip59)">
<path style=" stroke:none;fill-rule:evenodd;fill:rgb(41.568627%,67.058824%,95.294118%);fill-opacity:1;" d="M 110.699219 278.707031 C 114.84375 282.191406 119.117188 285.207031 123.523438 287.757812 C 123.332031 290.34375 123.226562 292.953125 123.214844 295.582031 C 118.742188 293.1875 114.417969 290.25 110.234375 286.777344 C 110.425781 284.066406 110.582031 281.378906 110.699219 278.707031 Z M 110.699219 278.707031 "/>
</g>
<mask id="mask59">
  <g filter="url(#alpha)">
<rect x="0" y="0" width="309" height="305" style="fill:rgb(0%,0%,0%);fill-opacity:0.996078;stroke:none;"/>
  </g>
</mask>
<clipPath id="clip60">
  <rect x="0" y="0" width="309" height="305"/>
</clipPath>
<g id="surface182" clip-path="url(#clip60)">
<path style=" stroke:none;fill-rule:evenodd;fill:rgb(40.392157%,54.901961%,94.901961%);fill-opacity:1;" d="M 190.421875 284.578125 C 190.382812 287.351562 190.332031 290.121094 190.265625 292.894531 C 185.929688 295.613281 181.503906 297.898438 176.980469 299.742188 C 177.296875 297.164062 177.371094 294.554688 177.210938 291.914062 C 177.011719 292.230469 176.832031 292.230469 176.671875 291.914062 C 181.382812 290.054688 185.96875 287.605469 190.421875 284.578125 Z M 190.421875 284.578125 "/>
</g>
<mask id="mask60">
  <g filter="url(#alpha)">
<rect x="0" y="0" width="309" height="305" style="fill:rgb(0%,0%,0%);fill-opacity:0.992157;stroke:none;"/>
  </g>
</mask>
<clipPath id="clip61">
  <rect x="0" y="0" width="309" height="305"/>
</clipPath>
<g id="surface185" clip-path="url(#clip61)">
<path style=" stroke:none;fill-rule:evenodd;fill:rgb(41.176471%,62.352941%,95.294118%);fill-opacity:1;" d="M 136.5 285.554688 C 140.011719 290.085938 143.976562 293.265625 148.398438 295.09375 C 148.636719 293.183594 148.894531 291.308594 149.167969 289.46875 C 149.25 289.734375 149.300781 290.015625 149.324219 290.324219 C 149.183594 294.765625 149.078125 299.207031 149.015625 303.65625 C 144.625 303.277344 140.300781 302.378906 136.039062 300.964844 C 136.148438 295.816406 136.304688 290.679688 136.5 285.554688 Z M 136.5 285.554688 "/>
</g>
</defs>
<g id="surface1">
<use xlink:href="#surface5" mask="url(#mask0)"/>
<use xlink:href="#surface8" mask="url(#mask1)"/>
<use xlink:href="#surface11" mask="url(#mask2)"/>
<use xlink:href="#surface14" mask="url(#mask3)"/>
<use xlink:href="#surface17" mask="url(#mask4)"/>
<use xlink:href="#surface20" mask="url(#mask5)"/>
<use xlink:href="#surface23" mask="url(#mask6)"/>
<use xlink:href="#surface26" mask="url(#mask7)"/>
<use xlink:href="#surface29" mask="url(#mask8)"/>
<path style=" stroke:none;fill-rule:evenodd;fill:rgb(41.568627%,69.803922%,95.294118%);fill-opacity:1;" d="M 110.699219 17.734375 C 110.703125 20.589844 110.652344 23.441406 110.542969 26.292969 C 106.761719 29.734375 103.105469 33.484375 99.574219 37.542969 C 99.625 34.609375 99.679688 31.675781 99.730469 28.738281 C 99.574219 28.738281 99.421875 28.738281 99.265625 28.738281 C 102.871094 24.578125 106.679688 20.910156 110.699219 17.734375 Z M 110.699219 17.734375 "/>
<use xlink:href="#surface32" mask="url(#mask9)"/>
<use xlink:href="#surface35" mask="url(#mask10)"/>
<use xlink:href="#surface38" mask="url(#mask11)"/>
<use xlink:href="#surface41" mask="url(#mask12)"/>
<use xlink:href="#surface44" mask="url(#mask13)"/>
<use xlink:href="#surface47" mask="url(#mask14)"/>
<use xlink:href="#surface50" mask="url(#mask15)"/>
<use xlink:href="#surface53" mask="url(#mask16)"/>
<use xlink:href="#surface56" mask="url(#mask17)"/>
<use xlink:href="#surface59" mask="url(#mask18)"/>
<use xlink:href="#surface62" mask="url(#mask19)"/>
<use xlink:href="#surface65" mask="url(#mask20)"/>
<use xlink:href="#surface68" mask="url(#mask21)"/>
<use xlink:href="#surface71" mask="url(#mask22)"/>
<use xlink:href="#surface74" mask="url(#mask23)"/>
<use xlink:href="#surface77" mask="url(#mask24)"/>
<use xlink:href="#surface80" mask="url(#mask25)"/>
<path style=" stroke:none;fill-rule:evenodd;fill:rgb(40%,43.921569%,94.509804%);fill-opacity:1;" d="M 247.742188 118.011719 C 250.335938 135.707031 250.902344 153.5625 249.441406 171.578125 C 249.679688 171.8125 249.9375 171.890625 250.210938 171.824219 C 250.15625 179.761719 248.921875 187.179688 246.503906 194.078125 C 246.335938 194.515625 246.207031 195.003906 246.117188 195.546875 C 246.433594 169.292969 246.847656 143.042969 247.355469 116.789062 C 247.371094 117.316406 247.5 117.722656 247.742188 118.011719 Z M 247.742188 118.011719 "/>
<use xlink:href="#surface83" mask="url(#mask26)"/>
<use xlink:href="#surface86" mask="url(#mask27)"/>
<use xlink:href="#surface89" mask="url(#mask28)"/>
<use xlink:href="#surface92" mask="url(#mask29)"/>
<use xlink:href="#surface95" mask="url(#mask30)"/>
<use xlink:href="#surface98" mask="url(#mask31)"/>
<use xlink:href="#surface101" mask="url(#mask32)"/>
<use xlink:href="#surface104" mask="url(#mask33)"/>
<use xlink:href="#surface107" mask="url(#mask34)"/>
<use xlink:href="#surface110" mask="url(#mask35)"/>
<use xlink:href="#surface113" mask="url(#mask36)"/>
<use xlink:href="#surface116" mask="url(#mask37)"/>
<use xlink:href="#surface119" mask="url(#mask38)"/>
<use xlink:href="#surface122" mask="url(#mask39)"/>
<use xlink:href="#surface125" mask="url(#mask40)"/>
<use xlink:href="#surface128" mask="url(#mask41)"/>
<use xlink:href="#surface131" mask="url(#mask42)"/>
<use xlink:href="#surface134" mask="url(#mask43)"/>
<use xlink:href="#surface137" mask="url(#mask44)"/>
<use xlink:href="#surface140" mask="url(#mask45)"/>
<use xlink:href="#surface143" mask="url(#mask46)"/>
<use xlink:href="#surface146" mask="url(#mask47)"/>
<use xlink:href="#surface149" mask="url(#mask48)"/>
<use xlink:href="#surface152" mask="url(#mask49)"/>
<use xlink:href="#surface155" mask="url(#mask50)"/>
<use xlink:href="#surface158" mask="url(#mask51)"/>
<use xlink:href="#surface161" mask="url(#mask52)"/>
<use xlink:href="#surface164" mask="url(#mask53)"/>
<path style=" stroke:none;fill-rule:evenodd;fill:rgb(41.568627%,70.980392%,95.294118%);fill-opacity:1;" d="M 91.695312 256.449219 C 92.78125 258.171875 93.914062 259.800781 95.09375 261.339844 C 95.175781 261.839844 95.355469 262.25 95.636719 262.5625 C 95.660156 263.175781 95.6875 263.785156 95.710938 264.398438 C 95.699219 266.816406 95.542969 269.140625 95.25 271.371094 C 93.859375 269.660156 92.523438 267.867188 91.230469 265.988281 C 91.28125 265.683594 91.355469 265.683594 91.464844 265.988281 C 91.597656 262.8125 91.675781 259.632812 91.695312 256.449219 Z M 91.695312 256.449219 "/>
<use xlink:href="#surface167" mask="url(#mask54)"/>
<path style=" stroke:none;fill-rule:evenodd;fill:rgb(41.568627%,69.803922%,95.294118%);fill-opacity:1;" d="M 95.09375 261.339844 C 98.644531 266.101562 102.351562 270.507812 106.21875 274.550781 C 106.316406 277.414062 106.214844 280.1875 105.910156 282.863281 C 102.144531 279.507812 98.589844 275.675781 95.25 271.371094 C 95.542969 269.140625 95.699219 266.816406 95.710938 264.398438 C 95.6875 263.785156 95.660156 263.175781 95.636719 262.5625 C 95.355469 262.25 95.175781 261.839844 95.09375 261.339844 Z M 95.09375 261.339844 "/>
<use xlink:href="#surface170" mask="url(#mask55)"/>
<use xlink:href="#surface173" mask="url(#mask56)"/>
<use xlink:href="#surface176" mask="url(#mask57)"/>
<use xlink:href="#surface179" mask="url(#mask58)"/>
<use xlink:href="#surface182" mask="url(#mask59)"/>
<use xlink:href="#surface185" mask="url(#mask60)"/>
</g>
</svg>
