<?xml version="1.0" encoding="UTF-8"?>
<!DOCTYPE svg PUBLIC "-//W3C//DTD SVG 1.1//EN" "http://www.w3.org/Graphics/SVG/1.1/DTD/svg11.dtd">
<svg xmlns="http://www.w3.org/2000/svg" version="1.1" width="2000px" height="1247px" style="shape-rendering:geometricPrecision; text-rendering:geometricPrecision; image-rendering:optimizeQuality; fill-rule:evenodd; clip-rule:evenodd" xmlns:xlink="http://www.w3.org/1999/xlink">
<g><path style="opacity:0.99" fill="#699ef3" d="M 997.5,3.5 C 997.954,13.4175 997.954,23.4175 997.5,33.5C 995.396,33.2011 993.396,33.5344 991.5,34.5C 991.624,35.1067 991.957,35.44 992.5,35.5C 994.383,45.4622 996.049,55.4622 997.5,65.5C 994.708,132.316 992.708,199.316 991.5,266.5C 982.405,259.266 972.405,253.432 961.5,249C 968.112,247.79 974.778,247.29 981.5,247.5C 979.683,200.413 976.516,153.413 972,106.5C 969.896,83.9997 966.729,61.6664 962.5,39.5C 953.533,40.8771 944.866,43.3771 936.5,47C 927.659,50.9215 918.992,55.0882 910.5,59.5C 911.801,58.1184 912.634,56.4517 913,54.5C 913.293,39.8188 913.793,25.1521 914.5,10.5C 913.209,10.7373 912.209,10.404 911.5,9.5C 940.129,5.81 968.796,3.81 997.5,3.5 Z"/></g>
<g><path style="opacity:0.992" fill="#6998f2" d="M 997.5,3.5 C 1031.39,3.51731 1065.06,6.18398 1098.5,11.5C 1097.83,12.2674 1096.99,12.9341 1096,13.5C 1095.89,30.5967 1095.05,47.5967 1093.5,64.5C 1068.28,48.0374 1040.62,38.2041 1010.5,35C 1004.32,34.1808 998.319,34.3475 992.5,35.5C 991.957,35.44 991.624,35.1067 991.5,34.5C 993.396,33.5344 995.396,33.2011 997.5,33.5C 997.954,23.4175 997.954,13.4175 997.5,3.5 Z"/></g>
<g><path style="opacity:0.992" fill="#69a5f3" d="M 911.5,9.5 C 912.209,10.404 913.209,10.7373 914.5,10.5C 913.793,25.1521 913.293,39.8188 913,54.5C 912.634,56.4517 911.801,58.1184 910.5,59.5C 878.039,80.9574 850.039,107.291 826.5,138.5C 827.495,123.846 827.661,109.179 827,94.5C 826.162,95.999 825.329,96.3324 824.5,95.5C 839.07,78.0954 855.403,62.5954 873.5,49C 858.61,51.3474 843.944,54.8474 829.5,59.5C 829.421,48.9832 829.421,38.3166 829.5,27.5C 856.422,19.6028 883.755,13.6028 911.5,9.5 Z"/></g>
<g><path style="opacity:0.996" fill="#6892f2" d="M 1098.5,11.5 C 1125.8,15.6605 1152.47,21.9938 1178.5,30.5C 1179.61,40.958 1179.28,51.2913 1177.5,61.5C 1163.23,57.5153 1148.9,53.682 1134.5,50C 1129.88,48.6733 1125.21,48.0066 1120.5,48C 1141.93,63.5915 1160.93,81.7582 1177.5,102.5C 1177.37,112.672 1177.04,122.838 1176.5,133C 1176.49,137.557 1175.82,141.724 1174.5,145.5C 1151.81,114.139 1124.81,87.1394 1093.5,64.5C 1095.05,47.5967 1095.89,30.5967 1096,13.5C 1096.99,12.9341 1097.83,12.2674 1098.5,11.5 Z"/></g>
<g><path style="opacity:0.993" fill="#6aabf3" d="M 829.5,27.5 C 829.421,38.3166 829.421,48.9832 829.5,59.5C 800.615,68.2767 772.615,79.2767 745.5,92.5C 744.854,81.4015 744.187,70.4015 743.5,59.5C 771.11,46.2929 799.776,35.6263 829.5,27.5 Z"/></g>
<g><path style="opacity:0.994" fill="#678cf2" d="M 1178.5,30.5 C 1207.56,38.6275 1235.56,49.2942 1262.5,62.5C 1262.73,73.6089 1262.06,84.6089 1260.5,95.5C 1233.57,82.1944 1205.9,70.861 1177.5,61.5C 1179.28,51.2913 1179.61,40.958 1178.5,30.5 Z"/></g>
<g><path style="opacity:0.995" fill="#6aaff3" d="M 743.5,59.5 C 744.187,70.4015 744.854,81.4015 745.5,92.5C 735.517,97.4706 725.517,102.471 715.5,107.5C 716.194,95.8463 716.527,84.1797 716.5,72.5C 725.065,67.3852 734.065,63.0518 743.5,59.5 Z"/></g>
<g><path style="opacity:0.989" fill="#6786f2" d="M 1262.5,62.5 C 1292.64,76.0575 1320.97,92.3908 1347.5,111.5C 1345.95,112.23 1345.12,113.563 1345,115.5C 1344.5,125.494 1344.33,135.494 1344.5,145.5C 1317.85,126.831 1289.85,110.164 1260.5,95.5C 1262.06,84.6089 1262.73,73.6089 1262.5,62.5 Z"/></g>
<g><path style="opacity:0.987" fill="#689bf2" d="M 997.5,65.5 C 1005.48,125.91 1010.81,186.576 1013.5,247.5C 1033.18,247.947 1052.85,248.781 1072.5,250C 1058.48,256.003 1047.81,265.67 1040.5,279C 1031.85,278.798 1023.19,278.632 1014.5,278.5C 1015.48,283.129 1015.65,287.796 1015,292.5C 1008.38,282.716 1000.55,274.049 991.5,266.5C 992.708,199.316 994.708,132.316 997.5,65.5 Z"/></g>
<g><path style="opacity:1" fill="#6ab2f3" d="M 716.5,72.5 C 716.527,84.1797 716.194,95.8463 715.5,107.5C 691.018,121.574 667.352,136.908 644.5,153.5C 644.833,141.5 645.167,129.5 645.5,117.5C 644.5,117.5 643.5,117.5 642.5,117.5C 665.826,100.494 690.493,85.4941 716.5,72.5 Z"/></g>
<g><path style="opacity:0.993" fill="#6aaaf3" d="M 826.5,138.5 C 819.581,149.267 812.414,159.934 805,170.5C 798.374,181.585 791.874,192.751 785.5,204C 772.463,207.068 759.796,211.235 747.5,216.5C 766.806,172.247 792.472,131.913 824.5,95.5C 825.329,96.3324 826.162,95.999 827,94.5C 827.661,109.179 827.495,123.846 826.5,138.5 Z"/></g>
<g><path style="opacity:0.993" fill="#678df2" d="M 1177.5,102.5 C 1201.96,132.039 1222.96,164.039 1240.5,198.5C 1230.6,201.093 1220.6,202.927 1210.5,204C 1199.62,183.719 1187.62,164.219 1174.5,145.5C 1175.82,141.724 1176.49,137.557 1176.5,133C 1177.04,122.838 1177.37,112.672 1177.5,102.5 Z"/></g>
<g><path style="opacity:0.984" fill="#6780f1" d="M 1347.5,111.5 C 1375.66,129.811 1402,150.644 1426.5,174C 1431.7,179.035 1436.7,184.202 1441.5,189.5C 1440.5,201.322 1440.17,213.322 1440.5,225.5C 1436.41,223.955 1432.41,222.121 1428.5,220C 1402.5,192.565 1374.5,167.732 1344.5,145.5C 1344.33,135.494 1344.5,125.494 1345,115.5C 1345.12,113.563 1345.95,112.23 1347.5,111.5 Z"/></g>
<g><path style="opacity:0.998" fill="#6ab5f3" d="M 642.5,117.5 C 643.5,117.5 644.5,117.5 645.5,117.5C 645.167,129.5 644.833,141.5 644.5,153.5C 636.388,160.396 628.055,167.063 619.5,173.5C 618.177,170.062 617.51,166.229 617.5,162C 618.078,153.83 618.245,145.663 618,137.5C 616.989,138.337 615.822,138.67 614.5,138.5C 623.437,131.025 632.771,124.025 642.5,117.5 Z"/></g>
<g><path style="opacity:0.996" fill="#6bb9f4" d="M 619.5,173.5 C 591.796,198.537 565.796,225.204 541.5,253.5C 541.062,253.565 540.728,253.399 540.5,253C 542.049,251.786 543.215,250.286 544,248.5C 544.442,234.141 544.776,219.808 545,205.5C 544.184,206.823 543.017,207.489 541.5,207.5C 563.639,182.023 587.973,159.023 614.5,138.5C 615.822,138.67 616.989,138.337 618,137.5C 618.245,145.663 618.078,153.83 617.5,162C 617.51,166.229 618.177,170.062 619.5,173.5 Z"/></g>
<g><path style="opacity:0.991" fill="#667bf1" d="M 1441.5,189.5 C 1463.08,210.738 1482.42,233.738 1499.5,258.5C 1480.94,245.714 1461.27,234.714 1440.5,225.5C 1440.17,213.322 1440.5,201.322 1441.5,189.5 Z"/></g>
<g><path style="opacity:0.996" fill="#6bbef4" d="M 541.5,253.5 C 514.668,287.805 491.334,324.472 471.5,363.5C 471.836,342.785 471.836,322.118 471.5,301.5C 491.373,267.621 514.707,236.288 541.5,207.5C 543.017,207.489 544.184,206.823 545,205.5C 544.776,219.808 544.442,234.141 544,248.5C 543.215,250.286 542.049,251.786 540.5,253C 540.728,253.399 541.062,253.565 541.5,253.5 Z"/></g>
<g><path style="opacity:0.983" fill="#ef1924" d="M 839.5,258.5 C 855.077,258.416 870.411,260.249 885.5,264C 890.429,265.467 895.096,267.467 899.5,270C 863.417,269.584 830.083,278.918 799.5,298C 767.026,319.458 737.859,344.958 712,374.5C 628.444,473.646 576.111,587.646 555,716.5C 550.025,755.892 550.358,795.225 556,834.5C 560.312,863.119 570.312,889.452 586,913.5C 607.187,942.427 635.854,956.76 672,956.5C 708.088,955.472 740.588,944.305 769.5,923C 808.977,891.867 840.811,854.367 865,810.5C 935.578,683.855 966.578,548.188 958,403.5C 956.071,381.781 950.404,361.115 941,341.5C 933.422,329.312 922.922,325.812 909.5,331C 900.538,335.292 892.705,341.126 886,348.5C 861.641,377.918 841.641,410.252 826,445.5C 814.884,469.679 806.051,494.679 799.5,520.5C 777.379,518.499 762.879,506.833 756,485.5C 754.327,469.873 756.66,454.873 763,440.5C 787.895,389.273 824.395,348.439 872.5,318C 923.203,289.045 958.703,301.878 979,356.5C 988.314,384.072 993.648,412.406 995,441.5C 1002.87,556.483 981.869,665.817 932,769.5C 898.526,835.593 852.026,890.76 792.5,935C 753.957,963.095 710.957,980.429 663.5,987C 592.007,993.009 538.507,965.176 503,903.5C 482.967,866.038 472.301,826.038 471,783.5C 468.755,720.3 478.422,658.967 500,599.5C 535.946,498.37 592.779,411.203 670.5,338C 699.619,312.245 731.952,291.245 767.5,275C 790.723,265.459 814.723,259.959 839.5,258.5 Z"/></g>
<g><path style="opacity:0.982" fill="#ef1924" d="M 1269.5,258.5 C 1328.3,254.409 1383.96,265.575 1436.5,292C 1471.72,310.886 1498.55,338.053 1517,373.5C 1542.97,450.463 1524.47,514.296 1461.5,565C 1425.77,589.707 1386.77,607.707 1344.5,619C 1288.97,634.17 1232.47,642.004 1175,642.5C 1142.36,757.078 1110.02,871.744 1078,986.5C 1053.84,988.11 1034.17,979.443 1019,960.5C 1013.73,948.813 1013.07,936.813 1017,924.5C 1056.54,799.558 1097.87,675.225 1141,551.5C 1173.41,461.102 1209.24,372.102 1248.5,284.5C 1223.05,288.148 1198.72,295.981 1175.5,308C 1161.67,315.079 1148.01,322.412 1134.5,330C 1131.09,331.544 1127.59,332.711 1124,333.5C 1110.78,329.61 1101.28,321.443 1095.5,309C 1150.67,282.331 1208.67,265.497 1269.5,258.5 Z M 1304.5,277.5 C 1343.42,277.728 1379.42,287.894 1412.5,308C 1444.31,329.766 1462.14,359.933 1466,398.5C 1471.11,447.147 1457.78,489.814 1426,526.5C 1394.76,559.554 1357.59,583.72 1314.5,599C 1270.79,614.508 1225.79,623.675 1179.5,626.5C 1206.44,529.833 1238.28,434.833 1275,341.5C 1284.03,319.781 1293.86,298.448 1304.5,277.5 Z"/></g>
<g><path style="opacity:0.051" fill="#6683eb" d="M 1499.5,258.5 C 1500.17,258.5 1500.5,258.833 1500.5,259.5C 1500.17,259.167 1499.83,258.833 1499.5,258.5 Z"/></g>
<g><path style="opacity:0.008" fill="#6793ff" d="M 1500.5,259.5 C 1501.83,260.167 1501.83,260.167 1500.5,259.5 Z"/></g>
<g><path style="opacity:0.991" fill="#6bc4f4" d="M 471.5,301.5 C 471.836,322.118 471.836,342.785 471.5,363.5C 459.949,387.918 450.116,412.918 442,438.5C 450.038,428.961 458.872,420.294 468.5,412.5C 468.879,425.403 469.212,438.403 469.5,451.5C 448.768,473.428 432.601,498.428 421,526.5C 418.191,533.688 417.025,541.021 417.5,548.5C 430.895,541.259 444.895,535.592 459.5,531.5C 454.02,545.802 448.52,560.135 443,574.5C 431.905,578.713 421.905,584.713 413,592.5C 411.02,613.499 411.02,634.499 413,655.5C 415.443,658.605 416.943,662.105 417.5,666C 408.437,714.511 406.104,763.345 410.5,812.5C 405.548,798.915 399.715,785.582 393,772.5C 383.871,750.06 379.371,726.726 379.5,702.5C 381.5,702.5 383.5,702.5 385.5,702.5C 383.996,683.942 381.996,665.442 379.5,647C 379.691,644.95 380.358,643.117 381.5,641.5C 380.236,628.697 380.236,615.864 381.5,603C 378.916,597.002 378.916,591.002 381.5,585C 380.307,581.986 379.641,578.819 379.5,575.5C 379.858,567.781 380.691,560.114 382,552.5C 388.566,519.674 395.899,487.007 404,454.5C 419.481,400.222 441.981,349.222 471.5,301.5 Z"/></g>
<g><path style="opacity:0.016" fill="#6b9aff" d="M 584.5,335.5 C 585.833,336.167 585.833,336.167 584.5,335.5 Z"/></g>
<g><path style="opacity:0.985" fill="#6bb9f4" d="M 584.5,336.5 C 569.092,354.567 554.092,372.901 539.5,391.5C 540.452,381.218 540.786,370.885 540.5,360.5C 554.241,350.96 568.908,342.96 584.5,336.5 Z"/></g>
<g><path style="opacity:0.995" fill="#6bbef4" d="M 540.5,360.5 C 540.786,370.885 540.452,381.218 539.5,391.5C 538.952,393.394 537.952,395.06 536.5,396.5C 512.481,412.69 490.147,431.024 469.5,451.5C 469.212,438.403 468.879,425.403 468.5,412.5C 490.539,392.463 514.539,375.129 540.5,360.5 Z"/></g>
<g><path style="opacity:0.987" fill="#6785f2" d="M 1334.5,495.5 C 1334.74,504.208 1334.41,512.874 1333.5,521.5C 1322.71,527.895 1311.37,533.228 1299.5,537.5C 1299.45,533.802 1299.11,530.135 1298.5,526.5C 1290.76,526.039 1283.09,525.039 1275.5,523.5C 1279.44,513.003 1282.78,502.336 1285.5,491.5C 1288.5,491.5 1291.5,491.5 1294.5,491.5C 1294.33,485.447 1293.66,479.447 1292.5,473.5C 1298.77,453.626 1305.61,433.959 1313,414.5C 1318.63,440.255 1322.96,466.255 1326,492.5C 1328.54,494.181 1331.37,495.181 1334.5,495.5 Z"/></g>
<g><path style="opacity:0.987" fill="#6673f1" d="M 1603.5,482.5 C 1601.93,481.319 1601.1,479.653 1601,477.5C 1597.72,584.827 1595.05,692.16 1593,799.5C 1593.57,797.277 1594.4,795.277 1595.5,793.5C 1576.07,862.027 1545.73,925.027 1504.5,982.5C 1504.13,964.264 1503.8,945.931 1503.5,927.5C 1513.59,910.33 1522.92,892.663 1531.5,874.5C 1531.33,874.167 1531.17,873.833 1531,873.5C 1522.89,880.786 1514.39,887.453 1505.5,893.5C 1506.48,881.433 1506.48,869.433 1505.5,857.5C 1528.86,837.065 1548.7,813.731 1565,787.5C 1573.74,758.617 1579.58,729.284 1582.5,699.5C 1560.6,714.617 1536.93,726.284 1511.5,734.5C 1510.76,734.631 1510.09,734.464 1509.5,734C 1510.49,723.248 1510.82,712.415 1510.5,701.5C 1531.31,694.926 1550.65,685.426 1568.5,673C 1576.78,667.061 1582.28,659.228 1585,649.5C 1585.5,647.19 1585.66,644.857 1585.5,642.5C 1586.5,642.5 1587.5,642.5 1588.5,642.5C 1588.67,627.83 1588.5,613.163 1588,598.5C 1584.83,591.333 1579.67,586.167 1572.5,583C 1562.97,578.271 1553.3,573.937 1543.5,570C 1551.2,560.777 1558.03,550.944 1564,540.5C 1570.62,543.309 1576.95,546.642 1583,550.5C 1581.21,540.119 1578.38,529.952 1574.5,520C 1584.78,493.487 1590.28,465.987 1591,437.5C 1595.88,452.316 1600.05,467.316 1603.5,482.5 Z"/></g>
<g><path style="opacity:1" fill="#6670f1" d="M 1603.5,482.5 C 1620.3,554.84 1623.97,627.84 1614.5,701.5C 1616.05,702.452 1617.71,702.785 1619.5,702.5C 1619.14,734.958 1611.14,765.291 1595.5,793.5C 1594.4,795.277 1593.57,797.277 1593,799.5C 1595.05,692.16 1597.72,584.827 1601,477.5C 1601.1,479.653 1601.93,481.319 1603.5,482.5 Z"/></g>
<g><path style="opacity:0.979" fill="#69a3f3" d="M 877.5,483.5 C 884.167,483.5 890.833,483.5 897.5,483.5C 897.315,493.868 896.648,504.201 895.5,514.5C 885.502,515.667 875.502,515.667 865.5,514.5C 869.116,503.981 873.116,493.647 877.5,483.5 Z"/></g>
<g><path style="opacity:0.987" fill="#6896f2" d="M 1058.5,482.5 C 1072.17,482.979 1085.84,483.646 1099.5,484.5C 1095.93,494.389 1092.26,504.222 1088.5,514C 1078.14,514.704 1067.81,514.537 1057.5,513.5C 1058.43,503.206 1058.76,492.872 1058.5,482.5 Z"/></g>
<g><path style="opacity:0.966" fill="#6783f2" d="M 1334.5,495.5 C 1345.03,495.752 1355.36,496.918 1365.5,499C 1355.78,507.887 1345.12,515.387 1333.5,521.5C 1334.41,512.874 1334.74,504.208 1334.5,495.5 Z"/></g>
<g><path style="opacity:0.998" fill="#6ab1f3" d="M 699.5,746.5 C 698.679,749.641 698.179,752.975 698,756.5C 697,792.833 696,829.167 695,865.5C 694.772,869.917 694.272,874.25 693.5,878.5C 684.419,845.091 677.752,811.091 673.5,776.5C 657.403,774.817 641.403,772.484 625.5,769.5C 627.66,762.652 628.66,755.485 628.5,748C 628.347,743.987 627.68,740.153 626.5,736.5C 640.359,739.476 654.359,741.81 668.5,743.5C 662.509,684.284 661.009,624.951 664,565.5C 673.297,544.904 683.631,524.904 695,505.5C 695.667,504.167 696.333,504.167 697,505.5C 698.879,512.424 701.713,518.924 705.5,525C 703.063,526.375 700.397,526.875 697.5,526.5C 691.692,599.886 692.359,673.219 699.5,746.5 Z"/></g>
<g><path style="opacity:0.031" fill="#699cfb" d="M 459.5,530.5 C 460.833,531.167 460.833,531.167 459.5,530.5 Z"/></g>
<g><path style="opacity:0.99" fill="#6786f2" d="M 1327.5,742.5 C 1327.76,753.191 1327.43,764.024 1326.5,775C 1327.74,775.232 1328.74,775.732 1329.5,776.5C 1325.44,775.578 1323.1,777.078 1322.5,781C 1313.31,845.922 1297.31,909.089 1274.5,970.5C 1275,970.833 1275.5,971.167 1276,971.5C 1291.21,966.928 1306.38,962.261 1321.5,957.5C 1321.4,967.296 1321.57,977.296 1322,987.5C 1322.98,986.226 1323.81,986.226 1324.5,987.5C 1303.47,994.898 1282.14,1001.4 1260.5,1007C 1253.06,1024.04 1244.73,1040.54 1235.5,1056.5C 1235.91,1034.49 1236.57,1012.49 1237.5,990.5C 1237.17,987.833 1236.83,985.167 1236.5,982.5C 1235.01,983.705 1233.67,983.705 1232.5,982.5C 1235.09,982.318 1237.26,981.318 1239,979.5C 1263.92,915.635 1281.42,849.802 1291.5,782C 1274.54,783.532 1257.54,785.032 1240.5,786.5C 1241.61,785.121 1242.28,783.455 1242.5,781.5C 1244.1,772.254 1243.77,763.254 1241.5,754.5C 1259.56,752.993 1277.56,750.993 1295.5,748.5C 1297.77,729.892 1299.43,711.226 1300.5,692.5C 1311.18,690.462 1321.85,688.628 1332.5,687C 1330.91,705.458 1329.25,723.958 1327.5,742.5 Z"/></g>
<g><path style="opacity:0.997" fill="#6679f1" d="M 1510.5,701.5 C 1510.82,712.415 1510.49,723.248 1509.5,734C 1510.09,734.464 1510.76,734.631 1511.5,734.5C 1483.83,744.503 1455.5,752.503 1426.5,758.5C 1425.82,747.492 1425.49,736.492 1425.5,725.5C 1454.24,718.898 1482.57,710.898 1510.5,701.5 Z"/></g>
<g><path style="opacity:0.987" fill="#6780f1" d="M 1425.5,725.5 C 1425.49,736.492 1425.82,747.492 1426.5,758.5C 1394.45,765.897 1362.12,771.897 1329.5,776.5C 1328.74,775.732 1327.74,775.232 1326.5,775C 1327.43,764.024 1327.76,753.191 1327.5,742.5C 1328.45,743.152 1329.62,743.486 1331,743.5C 1362.75,738.716 1394.25,732.716 1425.5,725.5 Z"/></g>
<g><path style="opacity:0.998" fill="#6ab5f3" d="M 626.5,736.5 C 627.68,740.153 628.347,743.987 628.5,748C 628.66,755.485 627.66,762.652 625.5,769.5C 621.5,768.833 617.5,768.167 613.5,767.5C 613.492,756.431 614.326,745.431 616,734.5C 619.364,735.739 622.864,736.406 626.5,736.5 Z"/></g>
<g><path style="opacity:0.995" fill="#6aaff3" d="M 699.5,746.5 C 700.83,747.832 702.497,748.665 704.5,749C 712.473,750.163 720.473,750.997 728.5,751.5C 727.531,752.309 726.698,753.309 726,754.5C 726.103,764.422 725.27,774.088 723.5,783.5C 717.218,782.423 710.884,781.757 704.5,781.5C 709.228,813.641 715.562,845.474 723.5,877C 723.215,878.89 722.215,880.223 720.5,881C 712.62,885.458 704.287,888.625 695.5,890.5C 694.833,886.5 694.167,882.5 693.5,878.5C 694.272,874.25 694.772,869.917 695,865.5C 696,829.167 697,792.833 698,756.5C 698.179,752.975 698.679,749.641 699.5,746.5 Z"/></g>
<g><path style="opacity:0.993" fill="#69abf3" d="M 728.5,751.5 C 759.367,755.453 790.367,758.62 821.5,761C 816.338,770.995 810.671,780.662 804.5,790C 777.443,788.761 750.443,786.595 723.5,783.5C 725.27,774.088 726.103,764.422 726,754.5C 726.698,753.309 727.531,752.309 728.5,751.5 Z"/></g>
<g><path style="opacity:0.993" fill="#678af2" d="M 1241.5,754.5 C 1243.77,763.254 1244.1,772.254 1242.5,781.5C 1242.28,783.455 1241.61,785.121 1240.5,786.5C 1226.22,788.551 1211.89,789.551 1197.5,789.5C 1200.27,779.242 1203.27,769.076 1206.5,759C 1218.15,757.29 1229.81,755.79 1241.5,754.5 Z"/></g>
<g><path style="opacity:0.875" fill="#699cf2" d="M 1001.5,766.5 C 1002.1,766.735 1002.43,767.235 1002.5,768C 997.798,781.771 993.298,795.605 989,809.5C 988.774,805.113 988.274,800.779 987.5,796.5C 992.725,786.719 997.392,776.719 1001.5,766.5 Z"/></g>
<g><path style="opacity:0.055" fill="#6aa2f7" d="M 410.5,812.5 C 411.573,813.251 411.74,814.251 411,815.5C 410.517,814.552 410.351,813.552 410.5,812.5 Z"/></g>
<g><path style="opacity:0.997" fill="#6679f1" d="M 1505.5,857.5 C 1506.48,869.433 1506.48,881.433 1505.5,893.5C 1480.2,913.828 1452.87,931.161 1423.5,945.5C 1422.5,945.5 1421.5,945.5 1420.5,945.5C 1420.02,934.724 1420.69,924.057 1422.5,913.5C 1452.07,897.557 1479.73,878.891 1505.5,857.5 Z"/></g>
<g><path style="opacity:0.988" fill="#6780f1" d="M 1422.5,913.5 C 1420.69,924.057 1420.02,934.724 1420.5,945.5C 1421.5,945.5 1422.5,945.5 1423.5,945.5C 1391.72,962.21 1358.72,976.21 1324.5,987.5C 1323.81,986.226 1322.98,986.226 1322,987.5C 1321.57,977.296 1321.4,967.296 1321.5,957.5C 1356.19,945.328 1389.85,930.661 1422.5,913.5 Z"/></g>
<g><path style="opacity:0.997" fill="#6679f1" d="M 1503.5,927.5 C 1503.8,945.931 1504.13,964.264 1504.5,982.5C 1479.13,1018.22 1450.13,1050.88 1417.5,1080.5C 1417.31,1067.01 1417.14,1053.34 1417,1039.5C 1416.33,1040.25 1415.5,1040.59 1414.5,1040.5C 1448.39,1005.97 1478.06,968.302 1503.5,927.5 Z"/></g>
<g><path style="opacity:0.995" fill="#678cf2" d="M 1232.5,982.5 C 1233.67,983.705 1235.01,983.705 1236.5,982.5C 1236.83,985.167 1237.17,987.833 1237.5,990.5C 1236.57,1012.49 1235.91,1034.49 1235.5,1056.5C 1213.33,1100.82 1184.33,1140.16 1148.5,1174.5C 1148.52,1160.16 1148.86,1145.82 1149.5,1131.5C 1179.07,1096.37 1203.74,1057.87 1223.5,1016C 1199.98,1020.59 1176.31,1024.75 1152.5,1028.5C 1152.58,1018.02 1152.58,1007.68 1152.5,997.5C 1179.3,993.366 1205.97,988.366 1232.5,982.5 Z"/></g>
<g><path style="opacity:0.99" fill="#69a5f3" d="M 888.5,1002.5 C 885.963,1012.95 885.963,1023.28 888.5,1033.5C 858.994,1030.28 829.66,1025.95 800.5,1020.5C 802.331,1016.32 803.331,1011.82 803.5,1007C 803.392,1005.32 802.725,1004.15 801.5,1003.5C 806.857,999.499 812.524,995.833 818.5,992.5C 841.71,996.673 865.043,1000.01 888.5,1002.5 Z"/></g>
<g><path style="opacity:0.992" fill="#678ff2" d="M 1152.5,997.5 C 1152.58,1007.68 1152.58,1018.02 1152.5,1028.5C 1142.53,1029.83 1132.53,1030.83 1122.5,1031.5C 1130.35,1022.14 1135.85,1011.47 1139,999.5C 1143.41,998.469 1147.91,997.802 1152.5,997.5 Z"/></g>
<g><path style="opacity:0.99" fill="#699ff3" d="M 888.5,1002.5 C 914.452,1004.87 940.452,1006.54 966.5,1007.5C 967.568,1008.43 968.901,1008.77 970.5,1008.5C 970.5,1018.17 970.5,1027.83 970.5,1037.5C 969.209,1037.26 968.209,1037.6 967.5,1038.5C 941.12,1037.54 914.786,1035.87 888.5,1033.5C 885.963,1023.28 885.963,1012.95 888.5,1002.5 Z"/></g>
<g><path style="opacity:0.979" fill="#69a9f3" d="M 801.5,1003.5 C 802.725,1004.15 803.392,1005.32 803.5,1007C 803.331,1011.82 802.331,1016.32 800.5,1020.5C 792.834,1019.07 785.167,1017.57 777.5,1016C 785.658,1011.98 793.658,1007.81 801.5,1003.5 Z"/></g>
<g><path style="opacity:0.991" fill="#699af2" d="M 966.5,1007.5 C 970.182,1007.33 973.848,1007.5 977.5,1008C 989.9,1020.73 1004.23,1030.73 1020.5,1038C 1017.52,1038.5 1014.52,1038.66 1011.5,1038.5C 1008.82,1087 1004.32,1135.33 998,1183.5C 996.741,1192.63 994.908,1201.63 992.5,1210.5C 1009.49,1211.9 1026.16,1210.07 1042.5,1205C 1050.64,1202.42 1058.64,1199.59 1066.5,1196.5C 1065.83,1197.27 1064.99,1197.93 1064,1198.5C 1063.41,1212.17 1062.91,1225.83 1062.5,1239.5C 1029.78,1242.41 997.114,1243.08 964.5,1241.5C 964.917,1223.32 965.584,1205.15 966.5,1187C 966.352,1185.74 966.018,1184.58 965.5,1183.5C 971.697,1135.34 976.03,1087 978.5,1038.5C 974.833,1038.5 971.167,1038.5 967.5,1038.5C 968.209,1037.6 969.209,1037.26 970.5,1037.5C 970.5,1027.83 970.5,1018.17 970.5,1008.5C 968.901,1008.77 967.568,1008.43 966.5,1007.5 Z"/></g>
<g><path style="opacity:0.008" fill="#6793ff" d="M 517.5,1011.5 C 516.833,1010.17 516.833,1010.17 517.5,1011.5 Z"/></g>
<g><path style="opacity:0.992" fill="#6bb8f4" d="M 517.5,1011.5 C 538.676,1025.75 561.676,1036.25 586.5,1043C 589.02,1044.7 591.353,1046.53 593.5,1048.5C 593.366,1061.51 592.866,1074.51 592,1087.5C 591.31,1086.26 590.81,1086.26 590.5,1087.5C 563.342,1064.68 539.008,1039.35 517.5,1011.5 Z"/></g>
<g><path style="opacity:0.992" fill="#69aaf3" d="M 800.5,1069.5 C 801.052,1072.12 801.386,1074.78 801.5,1077.5C 800.785,1090.82 800.285,1104.16 800,1117.5C 799.329,1116.75 798.496,1116.41 797.5,1116.5C 778.369,1089.09 761.369,1060.26 746.5,1030C 755.497,1025.99 764.497,1022.32 773.5,1019C 782.398,1035.97 791.398,1052.8 800.5,1069.5 Z"/></g>
<g><path style="opacity:0.031" fill="#699cfb" d="M 1122.5,1031.5 C 1121.83,1032.17 1121.83,1032.17 1122.5,1031.5 Z"/></g>
<g><path style="opacity:0.987" fill="#6780f1" d="M 1417.5,1080.5 C 1386.73,1108.61 1353.39,1133.27 1317.5,1154.5C 1317.15,1142.68 1317.15,1130.68 1317.5,1118.5C 1336.12,1105.51 1354.45,1092.01 1372.5,1078C 1386.72,1065.73 1400.72,1053.23 1414.5,1040.5C 1415.5,1040.59 1416.33,1040.25 1417,1039.5C 1417.14,1053.34 1417.31,1067.01 1417.5,1080.5 Z"/></g>
<g><path style="opacity:0.999" fill="#6ab5f3" d="M 593.5,1048.5 C 600.534,1055.54 607.867,1062.2 615.5,1068.5C 616.031,1070.54 617.198,1072.21 619,1073.5C 619.167,1076 619.333,1078.5 619.5,1081C 619.403,1090.89 618.403,1100.39 616.5,1109.5C 607.515,1102.51 598.848,1095.18 590.5,1087.5C 590.81,1086.26 591.31,1086.26 592,1087.5C 592.866,1074.51 593.366,1061.51 593.5,1048.5 Z"/></g>
<g><path style="opacity:0.99" fill="#69a5f3" d="M 800.5,1069.5 C 822.999,1106.35 850.666,1139.02 883.5,1167.5C 882.223,1188.45 881.223,1209.45 880.5,1230.5C 852.198,1225.51 824.531,1218.17 797.5,1208.5C 797.589,1197.74 798.256,1187.08 799.5,1176.5C 823.614,1185.53 848.281,1192.36 873.5,1197C 844.526,1173.53 819.193,1146.7 797.5,1116.5C 798.496,1116.41 799.329,1116.75 800,1117.5C 800.285,1104.16 800.785,1090.82 801.5,1077.5C 801.386,1074.78 801.052,1072.12 800.5,1069.5 Z"/></g>
<g><path style="opacity:1" fill="#6ab2f3" d="M 615.5,1068.5 C 638.465,1087.97 662.465,1105.97 687.5,1122.5C 688.144,1134.22 687.478,1145.55 685.5,1156.5C 661.125,1142.78 638.125,1127.11 616.5,1109.5C 618.403,1100.39 619.403,1090.89 619.5,1081C 619.333,1078.5 619.167,1076 619,1073.5C 617.198,1072.21 616.031,1070.54 615.5,1068.5 Z"/></g>
<g><path style="opacity:0.991" fill="#6786f2" d="M 1317.5,1118.5 C 1317.15,1130.68 1317.15,1142.68 1317.5,1154.5C 1290.26,1171.45 1261.6,1185.79 1231.5,1197.5C 1231.91,1186.17 1232.24,1174.84 1232.5,1163.5C 1261.87,1150.32 1290.2,1135.32 1317.5,1118.5 Z"/></g>
<g><path style="opacity:0.996" fill="#6aaff3" d="M 687.5,1122.5 C 697.431,1127.78 707.098,1133.44 716.5,1139.5C 715.733,1150.42 714.733,1161.42 713.5,1172.5C 703.806,1167.66 694.472,1162.32 685.5,1156.5C 687.478,1145.55 688.144,1134.22 687.5,1122.5 Z"/></g>
<g><path style="opacity:0.997" fill="#6892f2" d="M 1149.5,1131.5 C 1148.86,1145.82 1148.52,1160.16 1148.5,1174.5C 1139.95,1182.79 1130.95,1190.62 1121.5,1198C 1128.91,1197.15 1136.25,1195.65 1143.5,1193.5C 1144.54,1194.79 1145.71,1194.79 1147,1193.5C 1148.04,1204.3 1147.54,1214.96 1145.5,1225.5C 1118.11,1231.79 1090.44,1236.45 1062.5,1239.5C 1062.91,1225.83 1063.41,1212.17 1064,1198.5C 1064.99,1197.93 1065.83,1197.27 1066.5,1196.5C 1098.38,1180.37 1126.04,1158.71 1149.5,1131.5 Z"/></g>
<g><path style="opacity:0.994" fill="#6aabf3" d="M 716.5,1139.5 C 743.315,1153.74 770.981,1166.07 799.5,1176.5C 798.256,1187.08 797.589,1197.74 797.5,1208.5C 768.567,1198.7 740.567,1186.7 713.5,1172.5C 714.733,1161.42 715.733,1150.42 716.5,1139.5 Z"/></g>
<g><path style="opacity:0.995" fill="#678cf2" d="M 1232.5,1163.5 C 1232.24,1174.84 1231.91,1186.17 1231.5,1197.5C 1203.44,1208.63 1174.77,1217.97 1145.5,1225.5C 1147.54,1214.96 1148.04,1204.3 1147,1193.5C 1145.71,1194.79 1144.54,1194.79 1143.5,1193.5C 1174,1185.89 1203.67,1175.89 1232.5,1163.5 Z"/></g>
<g><path style="opacity:0.993" fill="#699ff3" d="M 883.5,1167.5 C 906.224,1186.03 931.891,1199.03 960.5,1206.5C 962.06,1198.69 963.727,1191.02 965.5,1183.5C 966.018,1184.58 966.352,1185.74 966.5,1187C 965.584,1205.15 964.917,1223.32 964.5,1241.5C 936.088,1239.95 908.088,1236.28 880.5,1230.5C 881.223,1209.45 882.223,1188.45 883.5,1167.5 Z"/></g>
</svg>
